<svg width="145" height="50" viewBox="0 0 145 50" fill="none" xmlns="http://www.w3.org/2000/svg">
<g clip-path="url(#clip0_1872_623)">
<path d="M63.9075 1.41985C63.9075 1.41985 65.6914 5.92611 65.7083 5.97684H66.5537C66.5622 5.91765 67.8134 0.227765 67.8388 0.134766H67.0779C67.061 0.193947 66.0634 4.72557 66.0634 4.72557C66.0634 4.72557 64.271 0.177038 64.2541 0.134766H63.434C63.4171 0.193947 62.1658 5.88384 62.1489 5.97684H62.9267C62.9436 5.91765 63.9159 1.41985 63.9159 1.41985H63.9075Z" fill="black"/>
<path d="M70.054 6.11261C71.4321 6.11261 72.4805 5.25025 72.9455 3.77917C72.9455 3.77917 72.9455 3.7538 72.9624 3.72844H72.1592V3.7538C71.8717 4.75144 71.1447 5.37707 70.2654 5.37707C69.8004 5.37707 69.4453 5.23334 69.217 4.94589C68.8704 4.54853 68.7943 3.86371 68.9803 3.00981C69.2339 1.91072 69.961 0.710179 71.3053 0.710179C71.6942 0.710179 72.0155 0.820088 72.2268 1.03991C72.4128 1.23436 72.5143 1.51336 72.5143 1.84308C72.5143 1.85999 72.5143 1.88536 72.5143 1.91072C72.5143 1.91072 72.5143 1.92763 72.5143 1.95299H73.3259V1.91917C73.3682 1.34427 73.2329 0.87927 72.9116 0.541089C72.5819 0.185999 72.0746 0 71.4575 0C69.8934 0 68.5745 1.21745 68.1771 3.05208C67.9573 4.08353 68.0672 4.92898 68.4984 5.46162C68.845 5.90125 69.3777 6.11261 70.0709 6.11261H70.054Z" fill="black"/>
<path d="M77.5955 5.24193H74.535L74.9492 3.32276H77.7815C77.7899 3.27203 77.9168 2.68867 77.9421 2.60413H75.1099L75.5072 0.845587H78.5255C78.5339 0.79486 78.6608 0.211498 78.6861 0.126953H74.8478C74.8309 0.186135 73.5965 5.87602 73.5796 5.96902H77.4433C77.4518 5.9183 77.5786 5.31803 77.6039 5.23348L77.5955 5.24193Z" fill="black"/>
<path d="M88.3413 3.33057H90.8354C90.8438 3.27984 90.9706 2.69648 90.9876 2.61194H88.4935L88.8739 0.853399H91.7146C91.7231 0.802672 91.8584 0.219311 91.8753 0.134766H88.2314C88.2145 0.193947 86.9632 5.88384 86.9463 5.97684H87.7495C87.7664 5.91765 88.3328 3.32212 88.3328 3.32212L88.3413 3.33057Z" fill="black"/>
<path d="M47.472 4.2957C47.5058 4.15197 47.5143 4.02515 47.5143 3.89834C47.5143 3.40797 47.2945 3.06134 46.8717 2.9007L46.7872 2.86688L46.8717 2.82461C47.3706 2.57098 47.7087 2.13134 47.8271 1.59871C47.8525 1.48034 47.8694 1.35353 47.8694 1.24362C47.8694 0.87162 47.7256 0.558802 47.4467 0.355894C47.1592 0.144531 46.542 0.144531 46.0347 0.144531H44.0395C44.0226 0.203713 42.7798 5.8936 42.7544 5.9866H45.426C46.5927 5.9866 47.3029 5.10733 47.4805 4.2957H47.472ZM44.6736 0.85471H46.0855C46.4067 0.85471 46.7618 0.880074 46.9309 1.08298C46.9986 1.16753 47.0324 1.28589 47.0324 1.43807C47.0324 1.53107 47.0239 1.62407 46.9986 1.72553C46.8633 2.33425 46.4575 2.60479 45.6712 2.60479H44.2847L44.6651 0.846256L44.6736 0.85471ZM44.1409 3.33188H45.7473C46.17 3.33188 46.449 3.42488 46.5927 3.61934C46.6773 3.72079 46.7111 3.84761 46.7111 3.99979C46.7111 4.07588 46.7027 4.16043 46.6857 4.24497C46.5505 4.8537 46.0855 5.2426 45.4683 5.2426H43.7013L44.1325 3.32343L44.1409 3.33188Z" fill="black"/>
<path d="M48.1231 5.97684L49.1123 4.23521H51.3528C51.3528 4.23521 51.5557 5.9092 51.5641 5.97684H52.4518C52.4349 5.89229 51.581 0.202402 51.5641 0.134766H50.7187C50.7187 0.134766 47.3538 5.85847 47.2861 5.97684H48.1231ZM50.8962 1.07322L50.9554 0.963308L51.2513 3.50812H49.5181L50.8962 1.06476V1.07322Z" fill="black"/>
<path d="M58.2433 4.24497H60.4837C60.4837 4.24497 60.7035 5.91896 60.712 5.9866H61.5828C61.5659 5.90206 60.7289 0.212167 60.712 0.144531H59.8412L56.8398 5.25106H53.9653C53.9653 5.25106 55.0728 0.237531 55.0897 0.144531H54.2696C54.2527 0.203713 53.0184 5.8936 53.0015 5.9866H57.2372L58.2179 4.24497H58.2433ZM60.0272 1.07453L60.0863 0.964619L60.3823 3.50943H58.666L60.0272 1.06607V1.07453Z" fill="black"/>
<path d="M80.504 5.97748C82.2625 5.97748 83.3616 4.94603 83.8182 2.91694C83.8942 2.58722 83.9281 2.28285 83.9281 2.01231C83.9281 1.50504 83.8012 1.08231 83.5392 0.777951C83.1841 0.34677 82.5922 0.126953 81.7722 0.126953H79.8784C79.8614 0.186135 78.6102 5.87602 78.5933 5.96902H80.504V5.97748ZM80.5209 0.854041H81.713C82.2541 0.854041 82.6176 0.989314 82.8374 1.26831C83.0065 1.48813 83.0911 1.78404 83.0911 2.16449C83.0911 2.40967 83.0572 2.68867 82.9812 3.00994C82.5584 4.95448 81.3663 5.24193 80.6984 5.24193H79.5486L80.504 0.854041H80.5209Z" fill="black"/>
<path d="M92.2558 5.4278C92.6109 5.88434 93.1604 6.11261 93.8453 6.11261C95.6545 6.11261 96.8382 4.53162 97.151 3.05208C97.3623 2.09672 97.2271 1.21745 96.779 0.667907C96.4239 0.228272 95.8574 0 95.1726 0C93.3634 0 92.1966 1.58099 91.8585 3.04363C91.6471 4.01589 91.7908 4.87825 92.2558 5.4278ZM92.6785 3.06053C92.9322 1.91072 93.7523 0.727088 95.0374 0.727088C95.4939 0.727088 95.849 0.87927 96.0942 1.16672C96.4408 1.58945 96.5338 2.27426 96.3647 3.04363C96.1026 4.2188 95.2741 5.38553 93.9974 5.38553C93.5324 5.38553 93.1774 5.23334 92.9406 4.94589C92.6109 4.54007 92.5179 3.85526 92.687 3.06899L92.6785 3.06053Z" fill="black"/>
<path d="M100.076 6.11261C101.894 6.11261 103.069 4.53162 103.382 3.05208C103.593 2.09672 103.458 1.21745 103.01 0.667907C102.655 0.228272 102.088 0 101.403 0C99.5941 0 98.4274 1.58099 98.0976 3.04363C97.8863 4.01589 98.0215 4.87825 98.4865 5.4278C98.8416 5.88434 99.3912 6.11261 100.076 6.11261ZM98.9008 3.06053C99.1545 1.91072 99.9745 0.727088 101.26 0.727088C101.716 0.727088 102.071 0.87927 102.316 1.16672C102.663 1.58945 102.756 2.27426 102.587 3.04363C102.325 4.2188 101.496 5.38553 100.211 5.38553C99.7463 5.38553 99.3912 5.23334 99.1544 4.94589C98.8247 4.54007 98.7317 3.86371 98.9008 3.06899V3.06053Z" fill="black"/>
<path d="M108.987 2.92607C109.063 2.59634 109.097 2.29198 109.097 2.02143C109.097 1.51416 108.97 1.09144 108.725 0.795529C108.362 0.364349 107.761 0.144531 106.941 0.144531H105.039C105.022 0.203713 103.771 5.8936 103.754 5.9866H105.673C107.432 5.9866 108.539 4.95515 108.987 2.92607ZM105.682 0.85471H106.874C107.406 0.85471 107.778 0.989983 107.998 1.26053C108.277 1.62407 108.328 2.19052 108.15 3.00216C107.728 4.9467 106.544 5.23415 105.868 5.23415H104.726L105.682 0.846256V0.85471Z" fill="black"/>
<path d="M102.114 41.2663C101.75 41.1395 101.429 40.7591 101.682 40.0151L110.56 12.5294C111.075 10.9823 111.709 10.5088 112.166 10.2975C112.36 10.2045 112.665 10.1622 112.648 9.87473C112.639 9.68028 112.428 9.62109 112.234 9.62109H105.453C105.326 9.62109 105.199 9.638 105.098 9.79864C104.185 11.2021 93.5407 28.1957 93.4392 28.3648L93.0926 28.2718L94.2255 10.0185C94.2255 9.90009 94.2678 9.65491 94.048 9.638H93.9211L87.352 9.62955C87.1744 9.62955 86.9039 9.66337 86.8701 9.90009C86.8447 10.0945 86.9631 10.196 87.1153 10.3228C87.2505 10.4327 87.4365 10.5426 87.5464 10.7202C87.7832 11.033 87.7916 11.3627 87.5633 12.0729C87.4957 12.2674 81.0534 31.9579 79.7767 36.1091C79.0835 38.3073 77.6885 42.2893 75.8877 44.1747C73.03 47.1676 70.9249 47.1845 69.3439 47.0492C68.5238 46.9816 67.2894 46.432 66.6976 45.519C66.2833 44.8511 66.1819 44.1324 66.4778 43.4392C66.816 42.6275 67.6868 42.5768 68.0841 42.7628C68.5491 42.9742 69.4622 42.8473 69.5468 41.52C69.5721 40.9873 69.5468 40.3025 68.8789 39.5754C68.4984 39.1527 67.5008 38.5693 66.0382 38.7638C63.5441 39.1104 62.352 41.1903 62.2336 42.9657C62.0814 45.3245 62.8423 46.7533 64.1105 47.9708C66.2664 49.9999 69.5214 50.0083 69.885 49.9999C72.6919 49.9576 76.6317 49.1121 79.3794 45.4091C81.028 43.194 82.4822 39.7107 84.4098 33.3952C85.6104 29.4216 89.5163 17.915 89.5502 17.822C89.5417 18.0164 88.2735 39.3641 88.1721 41.4692C88.1721 41.7567 88.3327 41.8412 88.5018 41.8666C88.6455 41.8835 88.7893 41.8666 88.9668 41.5961L104.16 17.7966L97.2015 39.5501C96.8295 40.8098 96.17 41.0465 95.7473 41.2325C95.3838 41.3932 95.2992 41.4777 95.3161 41.6806C95.3161 41.7652 95.333 41.9681 96.0094 41.9427C96.0094 41.9427 101.758 41.9427 101.775 41.9427C102.156 41.9427 102.536 41.9681 102.562 41.6722C102.57 41.5792 102.587 41.4016 102.105 41.2494L102.114 41.2663Z" fill="black"/>
<path d="M26.5978 39.3984C25.8453 38.7812 24.6363 38.3078 23.1314 38.9081C22.472 39.1871 21.9816 39.6351 21.8041 40.1593C21.6773 40.5313 21.6012 41.25 22.007 41.3852C23.4273 41.8587 22.8524 43.4481 22.0493 44.3189C20.7219 45.7562 16.8244 47.3457 13.3749 46.3988C6.58595 44.5303 3.7706 38.1979 6.65359 27.8665C7.92177 23.2926 12.5295 12.5892 21.0516 12.5976C24.797 12.5976 26.7584 14.2801 27.3249 15.692C27.4517 16.0217 27.587 16.1062 27.7814 16.0978C27.8913 16.0978 27.9843 16.0217 28.0351 15.8864L29.8781 10.8898C30.0303 10.4755 30.1571 10.1543 29.8951 10.0021C29.726 9.90907 29.5738 9.94289 29.2356 10.0274C28.9904 10.0951 28.6945 10.1796 28.3225 10.1712C27.7814 10.1627 27.2065 9.98516 26.4794 9.75689C25.2789 9.38489 23.6303 8.89453 21.1277 8.89453C13.6793 8.89453 4.07496 16.1147 0.887608 28.1624C-0.930113 35.0613 0.0928834 41.0471 3.76214 45.046C6.41686 47.9375 10.2214 49.9497 14.474 49.9497C24.5856 49.9497 26.8514 44.9108 27.4263 43.3636C27.8913 42.0447 27.7645 40.3031 26.6062 39.39L26.5978 39.3984Z" fill="black"/>
<path d="M67.0192 12.2076C65.4889 11.6834 64.0263 12.8078 63.3584 14.1606C62.5721 15.7077 63.3161 17.2549 64.2207 17.6861C64.7533 17.9397 65.3705 17.9735 65.9793 17.7706C66.8501 17.4832 67.6702 16.7645 68.0844 15.8684C68.5156 14.9553 68.5748 13.9915 68.2451 13.2559C68.0083 12.7486 67.5941 12.3936 67.0107 12.1991L67.0192 12.2076Z" fill="black"/>
<path d="M143.338 31.6284C142.78 31.4171 142.315 31.4847 141.985 31.9497C141.96 31.992 139.491 35.8303 137.098 35.4752C136.447 35.3738 135.94 35.061 135.576 34.5537C134.621 33.2263 135.128 31.0113 135.128 31.0113C135.128 31.0113 140.556 30.9098 143.583 27.5703C145.012 25.9977 145.172 23.9348 144.53 22.599C144.056 21.6183 142.704 21.0434 141.554 20.9588C137.994 20.6798 134.985 23.0978 133.294 25.8371C131.628 28.5425 131.197 31.5101 131.163 33.1502C131.163 33.2771 131.163 33.4123 131.18 33.5392C130.073 34.7566 128.694 35.5936 127.621 35.4668C126.708 35.3569 126.302 34.4438 126.708 33.4377C129.743 23.9433 129.717 23.9433 129.684 24.1293L129.887 23.529H132.034C132.829 23.529 132.803 23.4529 132.93 23.1063L133.218 22.2186L133.361 21.7789C133.412 21.6352 133.497 21.4492 133.353 21.3308C133.319 21.3055 133.285 21.2547 133.125 21.2547H130.631L130.833 20.6122L132.085 16.7569C132.127 16.6301 132.161 16.4695 131.983 16.3849C131.806 16.3004 131.628 16.4526 131.628 16.4526C130.368 17.7546 127.342 20.832 124.239 22.4215C123.867 22.6159 123.698 22.7935 123.698 23.0302C123.698 23.157 123.732 23.2585 123.808 23.3346C124.061 23.5713 124.729 23.5121 125.084 23.5206H126.327C126.116 24.2223 123.918 30.597 123.03 33.1587C122.633 33.6406 120.925 35.5598 119.42 35.4921C119.217 35.4837 118.067 35.2554 118.507 33.7336C118.904 32.3724 122.497 22.0241 122.675 21.5253C122.692 21.4746 122.709 21.4069 122.675 21.3647C122.633 21.3139 122.514 21.2801 122.371 21.2801H119.42C119.225 21.2801 119.149 21.39 118.98 21.7282L118.524 22.9626C118.558 22.4976 118.397 22.0072 118.076 21.6437C117.788 21.3139 117.289 20.925 116.461 20.8827C113.375 20.7306 110.433 23.5459 108.725 27.7055C107.431 30.8422 106.696 35.1793 108.057 37.2422C108.556 37.9862 109.579 38.5358 110.602 38.5358C112.479 38.5358 114.567 37.3691 115.184 36.6842C115.184 37.7495 115.556 38.4766 117.112 38.5358C119.225 38.6203 121.229 37.2253 122.624 35.9741C122.852 37.555 124.011 38.8148 126.64 38.5358C127.959 38.4005 130.064 37.3099 131.696 35.6866C132.389 37.2676 133.776 38.4935 135.822 38.5358C138.992 38.595 142.002 36.5659 143.752 32.9389C143.963 32.4823 143.837 31.8229 143.329 31.6284H143.338ZM140.649 23.8587C141.123 23.8587 143.101 24.9156 140.353 27.0376C138.071 28.7962 135.669 28.8046 135.669 28.8046C135.669 28.8046 137.039 23.8587 140.649 23.8587ZM116.351 29.6416C115.007 33.573 114.373 35.6951 112.394 35.4752C112.073 35.4414 110.111 35.4076 112.259 29.016C113.037 26.7333 114.381 23.5966 116.334 23.8587C118.143 24.1039 116.985 27.6295 116.351 29.6416Z" fill="black"/>
<path d="M70.2737 38.4345C73.3005 38.629 76.268 36.7352 78.128 33.1927C78.3478 32.77 78.2717 32.0767 77.7898 31.8654C77.2572 31.6286 76.8091 31.6794 76.4794 32.1359C76.454 32.1697 73.9092 35.9066 71.6518 35.4416C71.0262 35.3148 70.5612 34.9766 70.2568 34.4525C69.4198 33.0828 70.0201 30.8931 70.0201 30.8931C70.0201 30.8931 75.1774 31.0284 78.2463 27.8241C79.6921 26.3192 79.9542 24.2648 79.3962 22.9036C79.0073 21.906 77.756 21.2719 76.6654 21.1366C73.3005 20.7054 70.2991 22.9881 68.5406 25.6513C66.7989 28.2807 66.2409 31.2228 66.131 32.863C66.1141 33.0997 66.1226 33.3365 66.131 33.5816C65.294 34.4525 63.8145 35.5093 62.8422 35.5093C61.1429 35.5093 61.8869 33.1505 62.1405 32.4487C62.8338 30.4873 65.5308 22.5908 65.8774 21.6777C65.9619 21.4494 65.9704 21.2888 65.8943 21.2042C65.8013 21.1028 65.573 21.1112 65.4547 21.1366L62.149 22.1089L60.6102 22.5823C60.1706 22.7091 60.0015 22.354 59.8747 22.075L59.807 21.9398C59.7732 21.8721 59.4435 21.2972 58.7164 21.2972C57.2031 21.2972 55.5713 22.8782 54.2017 25.1694C54.4638 24.3662 54.9288 22.743 55.081 22.2695L55.2416 21.7538C55.3262 21.4917 55.2839 21.2972 55.1486 21.2042C55.0303 21.1281 54.895 21.1451 54.7851 21.1789L51.4286 22.1258L50.7861 22.3287C50.6339 22.371 50.5494 22.4386 50.5155 22.5231C50.4733 22.6584 50.5663 22.8867 50.7945 23.1403C51.2764 23.7068 51.0313 24.4761 50.7945 25.2032L50.7269 25.423L46.8294 37.1579L46.5419 38.0287C46.5081 38.1217 46.525 38.2063 46.5673 38.2654C46.618 38.3331 46.711 38.35 46.7786 38.3584C47.3958 38.3838 49.1375 38.3838 49.5179 38.3584H49.78C50.0083 38.3584 50.0421 38.3584 50.1097 38.2147C50.2027 38.0118 50.9974 35.6953 51.6823 33.6408L52.9166 30.0307C53.8297 27.4014 55.2247 25.8289 56.4591 26.0318C56.755 26.0825 56.9156 26.1924 57.0678 26.2939C57.2707 26.4376 57.4567 26.5982 58.0147 26.5813C58.9024 26.5559 59.545 25.144 59.545 25.144C59.7056 24.9073 59.7901 24.6199 59.8662 24.3493C59.9592 24.028 60.0353 23.7575 60.2636 23.656C60.382 23.6053 60.5257 23.6053 60.7032 23.673C61.388 23.9604 61.202 24.5353 60.9653 25.2286L60.94 25.2878C60.551 26.3953 58.9024 31.0707 58.2091 33.0828C56.5013 38.1809 59.3928 38.5022 60.272 38.536C62.6139 38.629 64.3049 37.4454 66.5453 35.5515C67.1625 37.0987 68.3884 38.3077 70.2737 38.4345ZM75.6508 23.9773C76.0989 24.0027 77.9251 25.1356 75.1858 27.1393C72.92 28.7964 70.6457 28.7034 70.6457 28.7034C70.6457 28.7034 72.2183 23.8251 75.6508 23.9773Z" fill="black"/>
<path d="M46.3731 22.6503C45.5869 21.6273 44.4286 21.0101 42.8138 20.9171C38.5696 20.6804 35.5683 24.8569 34.3339 28.4332C33.5307 30.7751 33.5054 32.001 33.5054 33.024C33.5054 33.1762 33.5223 33.3114 33.5307 33.4552C32.6176 34.3429 31.0535 35.628 29.76 35.4927C29.5909 35.4758 28.9568 35.1799 29.3035 33.954L37.2084 9.89243C37.3352 9.48661 37.3099 9.40207 37.2422 9.34289C37.1831 9.30061 37.0562 9.29216 36.8618 9.33443L34.4269 9.8417L32.5077 10.2222C31.9497 10.3405 31.899 10.4927 31.8905 10.721C31.8905 10.814 31.9666 10.8985 32.0934 11.0422C32.3555 11.3382 32.7444 11.7778 32.4401 12.7247L25.6427 33.5313C24.9578 34.2499 23.5967 35.5519 22.3369 35.4927C22.1425 35.4842 20.9927 35.256 21.4408 33.7342C21.8381 32.373 25.4313 22.0247 25.6088 21.5258C25.6257 21.4751 25.6427 21.4075 25.6088 21.3652C25.5666 21.3145 25.4482 21.2807 25.3045 21.2807H22.3369C22.1425 21.2807 22.0748 21.3906 21.9142 21.7288L21.4577 22.9631C21.4915 22.4981 21.3309 22.0078 21.0011 21.6442C20.7052 21.3145 20.2064 20.9256 19.3948 20.8833C16.292 20.7311 13.3667 23.5465 11.6504 27.7061C10.3569 30.8427 9.61289 35.1799 10.991 37.2428C11.4813 37.9868 12.4959 38.5363 13.5358 38.5363C15.4127 38.5363 17.501 37.3696 18.1012 36.6848C18.1012 37.7501 18.4732 38.4771 20.0289 38.5363C22.0495 38.6209 23.9771 37.3442 25.3637 36.1352V36.1522C25.3721 36.2452 25.7779 38.3672 28.0691 38.5363C29.574 38.6462 31.9666 37.3781 33.9196 35.6026C34.6383 37.6401 36.177 38.5363 37.8002 38.5363C41.9852 38.5363 44.995 35.5772 46.7705 29.7014C47.6582 26.7507 47.506 24.1637 46.3393 22.6503H46.3731ZM19.3018 29.6422C17.949 33.5735 17.3234 35.6956 15.3451 35.4758C15.0238 35.442 13.0623 35.4082 15.2098 29.0165C15.9707 26.7338 17.3319 23.5972 19.2849 23.8593C21.0857 24.1045 19.9274 27.63 19.3018 29.6422ZM42.6193 30.2171C41.7654 32.4406 40.2267 35.6449 38.5273 35.4927C36.4475 35.3067 37.3944 31.2063 38.3667 28.653C39.1445 26.5816 40.6241 23.6141 42.5263 23.8508C44.3018 24.0707 43.786 27.1143 42.6109 30.2171H42.6193Z" fill="black"/>
</g>
<defs>
<clipPath id="clip0_1872_623">
<rect width="144.893" height="50" fill="white"/>
</clipPath>
</defs>
</svg>
