<svg class="w-54 h-18 object-contain" width="96" height="30" viewBox="0 0 96 30" fill="none" xmlns="http://www.w3.org/2000/svg"><path d="M84.5589 8.27148C87.6172 8.27155 90.5536 10.1824 90.5159 14.3418C90.4783 18.0023 90.4783 20.8257 90.5159 24.3545C90.5161 25.8787 91.6166 26.3771 92.8587 25.502C93.6115 25.0692 94.6562 25.634 94.0354 26.876C93.4802 27.977 92.1437 29.2753 90.1487 29.2754C88.6807 29.2754 87.6834 28.5698 86.9212 27.4688C86.4977 26.8947 85.9981 26.8197 85.2923 27.3467C83.7962 28.4852 82.526 29.2753 80.1644 29.2754C77.106 29.2754 75.2513 27.789 75.2513 25.0977C75.2513 22.538 76.9647 21.2868 80.4466 19.9316C82.7145 19.0565 83.7965 18.6133 85.2269 18.0957C86.2712 17.7193 86.5442 17.1082 86.5442 16.1016V14.3604C86.5442 12.3371 85.6786 10.7375 82.9026 10.7656C81.3029 10.8033 79.9284 11.3582 79.9095 12.7227C79.9095 13.1273 79.9476 13.5132 79.9759 14.0684C80.0606 17.6255 75.5618 17.6914 75.5618 14.8965C75.5619 12.0263 80.3995 8.27148 84.5589 8.27148ZM45.9729 1.10059C56.2961 0.884147 63.42 6.02251 63.4202 15.0752C63.4202 23.7705 56.8325 28.9933 46.7444 28.7393C42.1616 28.6546 38.9241 28.7021 36.4397 28.7773C35.1132 28.7958 34.6524 27.0456 35.9886 26.5469C38.2752 25.8035 38.4542 25.455 38.5013 21.7285C38.5389 17.428 38.5766 13.0896 38.5296 8.09277C38.4919 4.38522 38.4065 4.29073 35.9222 3.27441C34.6712 2.70024 34.9816 1.0445 36.5149 1.10059C38.8582 1.18528 42.1335 1.18528 45.9729 1.10059ZM17.2728 1.15723C17.669 1.15718 18.0688 1.17058 18.471 1.19824C26.8688 1.77643 33.6467 8.61829 34.1614 17.0225C34.399 20.9361 33.2397 24.5856 31.1116 27.749C30.4573 28.7217 29.1618 28.9441 28.0872 28.4756C24.7595 27.0247 21.0161 25.8716 17.2728 25.9209C13.5294 25.8716 9.78597 27.0248 6.4583 28.4756C5.38368 28.9441 4.08825 28.7217 3.43388 27.749C1.30579 24.5856 0.146547 20.9361 0.38408 17.0225C0.898834 8.61824 7.6766 1.77635 16.0745 1.19824C16.4767 1.17058 16.8764 1.15718 17.2728 1.15723ZM69.389 8.48828C70.8194 7.81073 71.5071 8.4415 71.5071 9.71191C71.4695 14.3135 71.4695 18.1059 71.5071 22.0488C71.5918 25.728 71.629 25.9918 73.7366 26.5752C75.0728 26.9892 74.7063 28.683 73.3421 28.7021C70.8201 28.6927 68.2503 28.6927 65.6624 28.7021C64.3453 28.683 64.0162 26.9992 65.2767 26.585C67.2811 26.0297 67.4793 25.7564 67.5452 22.0488C67.5829 20.1667 67.5829 18.1618 67.5452 16.1104C67.517 13.6356 67.0926 13.2594 65.427 12.4219C64.411 11.8666 64.4962 10.8497 65.4466 10.3887C66.7732 9.7583 67.8366 9.25037 69.389 8.48828ZM86.5345 21.2578C86.5344 19.9971 85.9983 19.743 84.8597 20.1006C80.4275 21.5216 79.806 23.0086 79.806 24.1943C79.806 25.6529 80.6538 26.4531 82.2347 26.4531C84.954 26.4529 86.5343 24.1473 86.5345 22.3594V21.2578ZM45.9261 3.30273C42.9337 3.28391 42.7259 3.53824 42.7259 5.34473C42.6882 11.6309 42.7263 16.2049 42.764 21.7383C42.8016 25.4083 43.5829 26.4524 47.8929 26.4336C54.0472 26.4147 58.4136 22.2647 58.4983 14.9434C58.5734 6.79424 53.4448 3.33101 45.9261 3.30273ZM69.1731 0C70.8009 0.000140931 72.1182 1.22309 72.1185 2.72852C72.1185 4.35644 70.8104 5.69321 69.1731 5.69336C67.5639 5.69336 66.2464 4.4414 66.2464 2.88867C66.2465 1.29839 67.564 0 69.1731 0Z" fill="currentColor"></path></svg>