<svg xmlns="http://www.w3.org/2000/svg" xmlns:xlink="http://www.w3.org/1999/xlink" viewBox="0 0 414 414" width="414" height="414" preserveAspectRatio="xMidYMid meet" style="width: 100%; height: 100%; transform: translate3d(0px, 0px, 0px); content-visibility: visible;"><defs><clipPath id="__lottie_element_769"><rect width="414" height="414" x="0" y="0"></rect></clipPath><clipPath id="__lottie_element_771"><path d="M0,0 L2880,0 L2880,1680 L0,1680z"></path></clipPath><clipPath id="__lottie_element_775"><path d="M0,0 L75,0 L75,60 L0,60z"></path></clipPath><clipPath id="__lottie_element_785"><path d="M0,0 L75,0 L75,60 L0,60z"></path></clipPath><clipPath id="__lottie_element_795"><path d="M0,0 L115,0 L115,50 L0,50z"></path></clipPath><clipPath id="__lottie_element_808"><path d="M0,0 L230,0 L230,230 L0,230z"></path></clipPath><clipPath id="__lottie_element_863"><path d="M0,0 L340,0 L340,360 L0,360z"></path></clipPath></defs><g clip-path="url(#__lottie_element_769)"><g clip-path="url(#__lottie_element_771)" transform="matrix(1,0,0,1,-1235,-630)" opacity="1" style="display: block;"><g clip-path="url(#__lottie_element_863)" transform="matrix(1,0,0,1,1270.2259521484375,683.906982421875)" opacity="1" style="display: block;"><g transform="matrix(1,0,0,1,300.5690002441406,112.81600189208984)" opacity="1" style="display: block;"><g opacity="1" transform="matrix(2,0,0,2,0,0)"><path fill="rgb(0,0,0)" fill-opacity="1" d=" M1.8760000467300415,-1.097000002861023 C1.8760000467300415,-1.097000002861023 -0.9179999828338623,-6.581999778747559 -0.9179999828338623,-6.581999778747559 C-0.9179999828338623,-6.581999778747559 8.156000137329102,-11.204999923706055 8.156000137329102,-11.204999923706055 C8.156000137329102,-11.204999923706055 10.984999656677246,-5.6519999504089355 10.984999656677246,-5.6519999504089355 C12.831000328063965,-2.0290000438690186 12.649999618530273,1.0490000247955322 9.467000007629395,2.6700000762939453 C6.486999988555908,4.188000202178955 3.687000036239624,2.4579999446868896 1.8760000467300415,-1.097000002861023z M8.994999885559082,-14.831000328063965 C8.994999885559082,-14.831000328063965 -14.706000328063965,-2.75600004196167 -14.706000328063965,-2.75600004196167 C-14.706000328063965,-2.75600004196167 -13.413000106811523,-0.21699999272823334 -13.413000106811523,-0.21699999272823334 C-13.413000106811523,-0.21699999272823334 -3.0179998874664307,-5.51200008392334 -3.0179998874664307,-5.51200008392334 C-3.0179998874664307,-5.51200008392334 -0.9309999942779541,-1.4149999618530273 -0.9309999942779541,-1.4149999618530273 C-0.9309999942779541,-1.4149999618530273 -7.296999931335449,11.345999717712402 -7.296999931335449,11.345999717712402 C-7.296999931335449,11.345999717712402 -6.328000068664551,14.831000328063965 -6.328000068664551,14.831000328063965 C-6.328000068664551,14.831000328063965 0.5690000057220459,1.3609999418258667 0.5690000057220459,1.3609999418258667 C3.2009999752044678,5.60699987411499 7.205999851226807,7.105000019073486 10.795000076293945,5.2769999504089355 C14.824000358581543,3.2239999771118164 15.928999900817871,-1.218999981880188 13.220999717712402,-6.534999847412109 C13.220999717712402,-6.534999847412109 8.994999885559082,-14.831000328063965 8.994999885559082,-14.831000328063965z"></path></g></g><g transform="matrix(1,0,0,1,272.60400390625,70.00399780273438)" opacity="1" style="display: block;"><g opacity="1" transform="matrix(1.9992539882659912,0.05462201312184334,-0.05462201312184334,1.9992539882659912,0,0)"><path fill="rgb(0,0,0)" fill-opacity="1" d=" M2.6050000190734863,-15.743000030517578 C2.6050000190734863,-15.743000030517578 -15.40999984741211,3.828000068664551 -15.40999984741211,3.828000068664551 C-15.40999984741211,3.828000068664551 -2.4649999141693115,15.743000030517578 -2.4649999141693115,15.743000030517578 C-2.4649999141693115,15.743000030517578 -0.7670000195503235,13.89799976348877 -0.7670000195503235,13.89799976348877 C-0.7670000195503235,13.89799976348877 -11.614999771118164,3.9130001068115234 -11.614999771118164,3.9130001068115234 C-11.614999771118164,3.9130001068115234 -4.8979997634887695,-3.384999990463257 -4.8979997634887695,-3.384999990463257 C-4.8979997634887695,-3.384999990463257 4.2729997634887695,5.057000160217285 4.2729997634887695,5.057000160217285 C4.2729997634887695,5.057000160217285 5.9710001945495605,3.2109999656677246 5.9710001945495605,3.2109999656677246 C5.9710001945495605,3.2109999656677246 -3.1989998817443848,-5.230000019073486 -3.1989998817443848,-5.230000019073486 C-3.1989998817443848,-5.230000019073486 3.003000020980835,-11.968000411987305 3.003000020980835,-11.968000411987305 C3.003000020980835,-11.968000411987305 13.711000442504883,-2.1110000610351562 13.711000442504883,-2.1110000610351562 C13.711000442504883,-2.1110000610351562 15.40999984741211,-3.9560000896453857 15.40999984741211,-3.9560000896453857 C15.40999984741211,-3.9560000896453857 2.6050000190734863,-15.743000030517578 2.6050000190734863,-15.743000030517578z"></path></g></g><g transform="matrix(1,0,0,1,225.70799255371094,42.44200134277344)" opacity="1" style="display: block;"><g opacity="1" transform="matrix(2,0,0,2,0,0)"><path fill="rgb(0,0,0)" fill-opacity="1" d=" M-11.781000137329102,0.4009999930858612 C-13.305999755859375,5.252999782562256 -11.069999694824219,10.149999618530273 -5.163000106811523,12.765999794006348 C0.3959999978542328,15.227999687194824 5.703999996185303,13.753999710083008 7.534999847412109,9.619000434875488 C9.01200008392334,6.2829999923706055 7.406000137329102,3.244999885559082 2.674999952316284,-0.42899999022483826 C2.674999952316284,-0.42899999022483826 -0.009999999776482582,-2.5320000648498535 -0.009999999776482582,-2.5320000648498535 C-3.312000036239624,-5.116000175476074 -4.625999927520752,-6.6539998054504395 -3.6110000610351562,-8.946999549865723 C-2.4719998836517334,-11.517999649047852 0.9449999928474426,-12.291000366210938 4.52400016784668,-10.706000328063965 C8.137999534606934,-9.105999946594238 9.720000267028809,-6.577000141143799 9.418999671936035,-3.552000045776367 C9.418999671936035,-3.552000045776367 12.093999862670898,-2.367000102996826 12.093999862670898,-2.367000102996826 C12.829000473022461,-6.28000020980835 10.932999610900879,-10.444000244140625 5.478000164031982,-12.859999656677246 C0.4399999976158142,-15.090999603271484 -4.605000019073486,-13.833999633789062 -6.296999931335449,-10.01200008392334 C-7.85099983215332,-6.502999782562256 -6.068999767303467,-3.677999973297119 -1.8860000371932983,-0.45399999618530273 C-1.8860000371932983,-0.45399999618530273 0.902999997138977,1.6959999799728394 0.902999997138977,1.6959999799728394 C4.521999835968018,4.504000186920166 5.701000213623047,6.439000129699707 4.670000076293945,8.767000198364258 C3.5309998989105225,11.338000297546387 -0.11299999803304672,12.342000007629395 -4.073999881744385,10.588000297546387 C-8.347999572753906,8.696000099182129 -10,5.38700008392334 -9.071000099182129,1.6009999513626099 C-9.071000099182129,1.6009999513626099 -11.781000137329102,0.4009999930858612 -11.781000137329102,0.4009999930858612z"></path></g></g><g transform="matrix(1,0,0,1,170.00999450683594,31.69300079345703)" opacity="1" style="display: block;"><g opacity="1" transform="matrix(2,0,0,2,0,0)"><path fill="rgb(0,0,0)" fill-opacity="1" d=" M-16.093000411987305,-12.947999954223633 C-16.093000411987305,-12.947999954223633 -9.357000350952148,13.300000190734863 -9.357000350952148,13.300000190734863 C-9.357000350952148,13.300000190734863 -5.974999904632568,13.309000015258789 -5.974999904632568,13.309000015258789 C-5.974999904632568,13.309000015258789 0.010999999940395355,-10.085000038146973 0.010999999940395355,-10.085000038146973 C0.010999999940395355,-10.085000038146973 5.8429999351501465,13.338000297546387 5.8429999351501465,13.338000297546387 C5.8429999351501465,13.338000297546387 9.262999534606934,13.345999717712402 9.262999534606934,13.345999717712402 C9.262999534606934,13.345999717712402 16.093000411987305,-12.628999710083008 16.093000411987305,-12.628999710083008 C16.093000411987305,-12.628999710083008 13.21500015258789,-13.281000137329102 13.21500015258789,-13.281000137329102 C13.21500015258789,-13.281000137329102 7.52400016784668,9.770000457763672 7.52400016784668,9.770000457763672 C7.52400016784668,9.770000457763672 1.88100004196167,-13.272000312805176 1.88100004196167,-13.272000312805176 C1.88100004196167,-13.272000312805176 -1.7289999723434448,-13.281000137329102 -1.7289999723434448,-13.281000137329102 C-1.7289999723434448,-13.281000137329102 -7.486000061035156,9.694999694824219 -7.486000061035156,9.694999694824219 C-7.486000061035156,9.694999694824219 -13.119000434875488,-13.345999717712402 -13.119000434875488,-13.345999717712402 C-13.119000434875488,-13.345999717712402 -16.093000411987305,-12.947999954223633 -16.093000411987305,-12.947999954223633z"></path></g></g><g transform="matrix(1,0,0,1,109.4489974975586,44.715999603271484)" opacity="1" style="display: block;"><g opacity="1" transform="matrix(2,0,0,2,0,0)"><path fill="rgb(0,0,0)" fill-opacity="1" d=" M8.99899959564209,-4.565999984741211 C12.041000366210938,1.4329999685287476 10.409000396728516,7.458000183105469 5.122000217437744,10.138999938964844 C-0.16500000655651093,12.819999694824219 -5.955999851226807,10.559000015258789 -8.998000144958496,4.559999942779541 C-12.039999961853027,-1.4390000104904175 -10.442000389099121,-7.447000026702881 -5.15500020980835,-10.128000259399414 C0.13199999928474426,-12.809000015258789 5.956999778747559,-10.5649995803833 8.99899959564209,-4.565999984741211z M-11.640999794006348,5.900000095367432 C-7.980000019073486,13.119000434875488 -0.0820000022649765,15.59000015258789 6.25600004196167,12.37600040435791 C12.628000259399414,9.145000457763672 15.303000450134277,1.312999963760376 11.642000198364258,-5.906000137329102 C7.980999946594238,-13.125 0.08299999684095383,-15.595999717712402 -6.289000034332275,-12.364999771118164 C-12.626999855041504,-9.151000022888184 -15.302000045776367,-1.319000005722046 -11.640999794006348,5.900000095367432z"></path></g></g><g transform="matrix(1,0,0,1,66.43099975585938,78.69499969482422)" opacity="1" style="display: block;"><g opacity="1" transform="matrix(2,0,0,2,0,0)"><path fill="rgb(0,0,0)" fill-opacity="1" d=" M-2.265000104904175,-1.8669999837875366 C-2.265000104904175,-1.8669999837875366 -6.348999977111816,2.740000009536743 -6.348999977111816,2.740000009536743 C-6.348999977111816,2.740000009536743 -13.968999862670898,-4.015999794006348 -13.968999862670898,-4.015999794006348 C-13.968999862670898,-4.015999794006348 -9.835000038146973,-8.678999900817871 -9.835000038146973,-8.678999900817871 C-7.138000011444092,-11.722000122070312 -4.208000183105469,-12.678999900817871 -1.534999966621399,-10.309000015258789 C0.9670000076293945,-8.090999603271484 0.38199999928474426,-4.853000164031982 -2.265000104904175,-1.8669999837875366z M-17.650999069213867,-3.4719998836517334 C-17.650999069213867,-3.4719998836517334 2.4760000705718994,14.355999946594238 2.4760000705718994,14.355999946594238 C2.4760000705718994,14.355999946594238 4.144000053405762,12.041999816894531 4.144000053405762,12.041999816894531 C4.144000053405762,12.041999816894531 -4.585999965667725,4.302999973297119 -4.585999965667725,4.302999973297119 C-4.585999965667725,4.302999973297119 -1.5360000133514404,0.8619999885559082 -1.5360000133514404,0.8619999885559082 C-1.5360000133514404,0.8619999885559082 14.394000053405762,2.055000066757202 14.394000053405762,2.055000066757202 C14.394000053405762,2.055000066757202 17.650999069213867,-0.453000009059906 17.650999069213867,-0.453000009059906 C17.650999069213867,-0.453000009059906 0.5,-1.5479999780654907 0.5,-1.5479999780654907 C3.490000009536743,-5.550000190734863 3.4210000038146973,-9.82699966430664 0.40700000524520874,-12.49899959564209 C-2.9769999980926514,-15.49899959564209 -7.517000198364258,-14.902000427246094 -11.475000381469727,-10.437999725341797 C-11.475000381469727,-10.437999725341797 -17.650999069213867,-3.4719998836517334 -17.650999069213867,-3.4719998836517334z"></path></g></g><g transform="matrix(1,0,0,1,34.310001373291016,118.14600372314453)" opacity="1" style="display: block;"><g opacity="1" transform="matrix(2,0,0,2,0,0)"><path fill="rgb(0,0,0)" fill-opacity="1" d=" M11.083000183105469,3.506999969482422 C11.083000183105469,3.506999969482422 9.005000114440918,8.36299991607666 9.005000114440918,8.36299991607666 C9.005000114440918,8.36299991607666 -0.28700000047683716,4.38700008392334 -0.28700000047683716,4.38700008392334 C-0.28700000047683716,4.38700008392334 1.7899999618530273,-0.4690000116825104 1.7899999618530273,-0.4690000116825104 C3.4639999866485596,-4.381999969482422 6.14300012588501,-5.716000080108643 8.937999725341797,-4.519999980926514 C11.873000144958496,-3.2639999389648438 12.741999626159668,-0.3709999918937683 11.083000183105469,3.506999969482422z M-2.3499999046325684,-8.5649995803833 C0.3050000071525574,-7.428999900817871 1.128999948501587,-4.71999979019165 -0.3059999942779541,-1.3660000562667847 C-0.3059999942779541,-1.3660000562667847 -2.384000062942505,3.490000009536743 -2.384000062942505,3.490000009536743 C-2.384000062942505,3.490000009536743 -11.118000030517578,-0.24799999594688416 -11.118000030517578,-0.24799999594688416 C-11.118000030517578,-0.24799999594688416 -9.11400032043457,-4.928999900817871 -9.11400032043457,-4.928999900817871 C-7.693999767303467,-8.248000144958496 -5.49399995803833,-9.90999984741211 -2.3499999046325684,-8.5649995803833z M-14.404999732971191,1.4459999799728394 C-14.404999732971191,1.4459999799728394 10.050000190734863,11.90999984741211 10.050000190734863,11.90999984741211 C10.050000190734863,11.90999984741211 13.369000434875488,4.1539998054504395 13.369000434875488,4.1539998054504395 C15.432000160217285,-0.6669999957084656 14.420999526977539,-5.355999946594238 10.263999938964844,-7.135000228881836 C6.909999847412109,-8.569999694824219 3.802000045776367,-7.006999969482422 2.127000093460083,-4.540999889373779 C2.6040000915527344,-7.394999980926514 1.2660000324249268,-10.159000396728516 -1.49399995803833,-11.34000015258789 C-5.4770002365112305,-13.043999671936035 -9.157999992370605,-10.815999984741211 -11.16100025177002,-6.135000228881836 C-11.16100025177002,-6.135000228881836 -14.404999732971191,1.4459999799728394 -14.404999732971191,1.4459999799728394z"></path></g></g><g transform="matrix(1,0,0,1,304.13800048828125,227.9409942626953)" opacity="1" style="display: block;"><g opacity="1" transform="matrix(1.9951281547546387,0.13951294124126434,-0.13951294124126434,1.9951281547546387,0,0)"><path fill="rgb(0,0,0)" fill-opacity="1" d=" M3.5399999618530273,7.179999828338623 C3.5399999618530273,7.179999828338623 13.263999938964844,11.571999549865723 13.263999938964844,11.571999549865723 C13.263999938964844,11.571999549865723 14.437000274658203,8.975000381469727 14.437000274658203,8.975000381469727 C14.437000274658203,8.975000381469727 4.7129998207092285,4.583000183105469 4.7129998207092285,4.583000183105469 C4.7129998207092285,4.583000183105469 -7.401000022888184,-11.571999549865723 -7.401000022888184,-11.571999549865723 C-7.401000022888184,-11.571999549865723 -8.71500015258789,-8.663000106811523 -8.71500015258789,-8.663000106811523 C-8.71500015258789,-8.663000106811523 2.015000104904175,4.739999771118164 2.015000104904175,4.739999771118164 C2.015000104904175,4.739999771118164 1.9989999532699585,4.775000095367432 1.9989999532699585,4.775000095367432 C1.9989999532699585,4.775000095367432 -2.8459999561309814,5.255000114440918 -2.8459999561309814,5.255000114440918 C-2.8459999561309814,5.255000114440918 -12.866000175476074,6.482999801635742 -12.866000175476074,6.482999801635742 C-12.866000175476074,6.482999801635742 -14.437000274658203,9.303999900817871 -14.437000274658203,9.303999900817871 C-14.437000274658203,9.303999900817871 3.5399999618530273,7.179999828338623 3.5399999618530273,7.179999828338623z"></path></g></g><g transform="matrix(1,0,0,1,273.62298583984375,283.8389892578125)" opacity="1" style="display: block;"><g opacity="1" transform="matrix(1.9990988969802856,-0.06003030762076378,0.06003030762076378,1.9990988969802856,0,0)"><path fill="rgb(0,0,0)" fill-opacity="1" d=" M-17.6560001373291,-2.4860000610351562 C-17.6560001373291,-2.4860000610351562 2.302000045776367,16.35700035095215 2.302000045776367,16.35700035095215 C2.302000045776367,16.35700035095215 4.4720001220703125,14.711999893188477 4.4720001220703125,14.711999893188477 C4.4720001220703125,14.711999893188477 -12.836999893188477,-1.3839999437332153 -12.836999893188477,-1.3839999437332153 C-12.836999893188477,-1.3839999437332153 15.571000099182129,4.260000228881836 15.571000099182129,4.260000228881836 C15.571000099182129,4.260000228881836 17.6560001373291,1.8079999685287476 17.6560001373291,1.8079999685287476 C17.6560001373291,1.8079999685287476 -1.7860000133514404,-16.35700035095215 -1.7860000133514404,-16.35700035095215 C-1.7860000133514404,-16.35700035095215 -3.7249999046325684,-14.45199966430664 -3.7249999046325684,-14.45199966430664 C-3.7249999046325684,-14.45199966430664 6.974999904632568,-4.452000141143799 6.974999904632568,-4.452000141143799 C9.222999572753906,-2.3499999046325684 13.104000091552734,1.121999979019165 13.104000091552734,1.121999979019165 C13.104000091552734,1.121999979019165 -14.741999626159668,-4.465000152587891 -14.741999626159668,-4.465000152587891 C-14.741999626159668,-4.465000152587891 -17.6560001373291,-2.4860000610351562 -17.6560001373291,-2.4860000610351562z"></path></g></g><g transform="matrix(0.9991803169250488,0.04048057645559311,-0.04048057645559311,0.9991803169250488,239.34100341796875,318.0880126953125)" opacity="1" style="display: block;"><g opacity="1" transform="matrix(2,0,0,2,0,0)"><path fill="rgb(0,0,0)" fill-opacity="1" d=" M-8.255999565124512,-3.7279999256134033 C-8.255999565124512,-3.7279999256134033 -8.854999542236328,-11.390000343322754 -8.854999542236328,-11.390000343322754 C-8.854999542236328,-11.390000343322754 -3.427000045776367,-6.138999938964844 -3.427000045776367,-6.138999938964844 C-3.427000045776367,-6.138999938964844 2.4830000400543213,-0.4020000100135803 2.4830000400543213,-0.4020000100135803 C2.4830000400543213,-0.4020000100135803 -7.614999771118164,4.376999855041504 -7.614999771118164,4.376999855041504 C-7.614999771118164,4.376999855041504 -8.255999565124512,-3.7279999256134033 -8.255999565124512,-3.7279999256134033z M-11.548999786376953,-13.35200023651123 C-11.548999786376953,-13.35200023651123 -9.642000198364258,14.767000198364258 -9.642000198364258,14.767000198364258 C-9.642000198364258,14.767000198364258 -6.9029998779296875,13.876999855041504 -6.9029998779296875,13.876999855041504 C-6.9029998779296875,13.876999855041504 -7.416999816894531,7.015999794006348 -7.416999816894531,7.015999794006348 C-7.416999816894531,7.015999794006348 4.3979997634887695,1.4240000247955322 4.3979997634887695,1.4240000247955322 C4.3979997634887695,1.4240000247955322 9.112000465393066,6.013000011444092 9.112000465393066,6.013000011444092 C9.112000465393066,6.013000011444092 11.548999786376953,4.453999996185303 11.548999786376953,4.453999996185303 C11.548999786376953,4.453999996185303 -8.560999870300293,-14.767000198364258 -8.560999870300293,-14.767000198364258 C-8.560999870300293,-14.767000198364258 -11.548999786376953,-13.35200023651123 -11.548999786376953,-13.35200023651123z"></path></g></g><g transform="matrix(0.9968761205673218,0.07898107171058655,-0.07898107171058655,0.9968761205673218,186.44900512695312,326.1499938964844)" opacity="1" style="display: block;"><g opacity="1" transform="matrix(2,0,0,2,0,0)"><path fill="rgb(0,0,0)" fill-opacity="1" d=" M-9.324999809265137,-12.748000144958496 C-9.324999809265137,-12.748000144958496 -6.504000186920166,13.70199966430664 -6.504000186920166,13.70199966430664 C-6.504000186920166,13.70199966430664 -3.6700000762939453,13.39900016784668 -3.6700000762939453,13.39900016784668 C-3.6700000762939453,13.39900016784668 -4.85099983215332,2.328000068664551 -4.85099983215332,2.328000068664551 C-4.85099983215332,2.328000068664551 0.4390000104904175,1.7640000581741333 0.4390000104904175,1.7640000581741333 C6.334000110626221,1.1349999904632568 9.753999710083008,-2.63100004196167 9.281999588012695,-7.052000045776367 C8.802000045776367,-11.54800033569336 4.541999816894531,-14.227999687194824 -1.2009999752044678,-13.614999771118164 C-1.2009999752044678,-13.614999771118164 -9.324999809265137,-12.748000144958496 -9.324999809265137,-12.748000144958496z M6.373000144958496,-6.742000102996826 C6.748000144958496,-3.2279999256134033 4.0269999504089355,-1.1410000324249268 -0.01600000075995922,-0.7099999785423279 C-0.01600000075995922,-0.7099999785423279 -5.117000102996826,-0.16599999368190765 -5.117000102996826,-0.16599999368190765 C-5.117000102996826,-0.16599999368190765 -6.236999988555908,-10.670000076293945 -6.236999988555908,-10.670000076293945 C-6.236999988555908,-10.670000076293945 -1.1360000371932983,-11.21399974822998 -1.1360000371932983,-11.21399974822998 C2.9070000648498535,-11.645000457763672 5.998000144958496,-10.255999565124512 6.373000144958496,-6.742000102996826z"></path></g></g><g transform="matrix(1,0,0,1,124.09300231933594,319.4339904785156)" opacity="1" style="display: block;"><g opacity="1" transform="matrix(1.9997977018356323,0.02844790741801262,-0.02844790741801262,1.9997977018356323,0,0)"><path fill="rgb(0,0,0)" fill-opacity="1" d=" M-8.715999603271484,-16.89299964904785 C-8.715999603271484,-16.89299964904785 -16.708999633789062,8.687999725341797 -16.708999633789062,8.687999725341797 C-16.708999633789062,8.687999725341797 -14.005999565124512,9.463000297546387 -14.005999565124512,9.463000297546387 C-14.005999565124512,9.463000297546387 -9.255999565124512,-4.794000148773193 -9.255999565124512,-4.794000148773193 C-8.461000442504883,-7.570000171661377 -7.650000095367432,-10.539999961853027 -7.105999946594238,-12.715999603271484 C-7.105999946594238,-12.715999603271484 -4.715000152587891,11.92199993133545 -4.715000152587891,11.92199993133545 C-4.715000152587891,11.92199993133545 -1.8660000562667847,12.73799991607666 -1.8660000562667847,12.73799991607666 C-1.8660000562667847,12.73799991607666 13.064000129699707,-6.821000099182129 13.064000129699707,-6.821000099182129 C13.064000129699707,-6.821000099182129 8.289999961853027,16.3799991607666 8.289999961853027,16.3799991607666 C8.289999961853027,16.3799991607666 11.104000091552734,16.89299964904785 11.104000091552734,16.89299964904785 C11.104000091552734,16.89299964904785 16.708999633789062,-9.611000061035156 16.708999633789062,-9.611000061035156 C16.708999633789062,-9.611000061035156 12.800999641418457,-10.730999946594238 12.800999641418457,-10.730999946594238 C12.800999641418457,-10.730999946594238 1.2970000505447388,4.315999984741211 1.2970000505447388,4.315999984741211 C-0.24899999797344208,6.4029998779296875 -1.3519999980926514,7.906000137329102 -2.359999895095825,9.355999946594238 C-2.359999895095825,9.355999946594238 -2.3959999084472656,9.345000267028809 -2.3959999084472656,9.345000267028809 C-2.4630000591278076,7.783999919891357 -2.6070001125335693,5.252999782562256 -2.8510000705718994,2.6530001163482666 C-2.8510000705718994,2.6530001163482666 -4.697999954223633,-15.741999626159668 -4.697999954223633,-15.741999626159668 C-4.697999954223633,-15.741999626159668 -8.715999603271484,-16.89299964904785 -8.715999603271484,-16.89299964904785z"></path></g></g><g transform="matrix(1,0,0,1,66.50499725341797,286.61700439453125)" opacity="1" style="display: block;"><g opacity="1" transform="matrix(2,0,0,2,0,0)"><path fill="rgb(0,0,0)" fill-opacity="1" d=" M7.5929999351501465,6.646999835968018 C3.1630001068115234,11.708000183105469 -3.0350000858306885,12.442999839782715 -7.495999813079834,8.538999557495117 C-11.956999778747559,4.635000228881836 -12.020000457763672,-1.5820000171661377 -7.590000152587891,-6.64300012588501 C-3.1600000858306885,-11.704000473022461 3.009999990463257,-12.46399974822998 7.4710001945495605,-8.5600004196167 C11.932000160217285,-4.656000137329102 12.02299976348877,1.5859999656677246 7.5929999351501465,6.646999835968018z M-9.819999694824219,-8.595000267028809 C-15.151000022888184,-2.505000114440918 -14.494999885559082,5.745999813079834 -9.14799976348877,10.425999641418457 C-3.7720000743865967,15.130999565124512 4.492000102996826,14.689000129699707 9.822999954223633,8.598999977111816 C15.154000282287598,2.509000062942505 14.498000144958496,-5.742000102996826 9.121999740600586,-10.446999549865723 C3.7750000953674316,-15.126999855041504 -4.488999843597412,-14.6850004196167 -9.819999694824219,-8.595000267028809z"></path></g></g><g transform="matrix(1,0,0,1,36.95500183105469,237.2169952392578)" opacity="1" style="display: block;"><g opacity="1" transform="matrix(2,0,0,2,0,0)"><path fill="rgb(0,0,0)" fill-opacity="1" d=" M-5.491000175476074,-11.1899995803833 C-13.045000076293945,-7.519999980926514 -15.625,-0.3100000023841858 -12.486000061035156,6.150000095367432 C-9.430000305175781,12.439000129699707 -3.6630001068115234,13.439000129699707 0.017999999225139618,12.579999923706055 C0.017999999225139618,12.579999923706055 -1.2450000047683716,9.982999801635742 -1.2450000047683716,9.982999801635742 C-3.9509999752044678,10.326000213623047 -7.936999797821045,9.685999870300293 -10.145999908447266,5.139999866485596 C-12.503999710083008,0.28700000047683716 -10.621000289916992,-5.4019999504089355 -4.195000171661377,-8.52400016784668 C2.2309999465942383,-11.645999908447266 7.849999904632568,-9.645999908447266 10.225000381469727,-4.757999897003174 C12.467000007629395,-0.14399999380111694 10.489999771118164,3.3519999980926514 8.531000137329102,5.232999801635742 C8.531000137329102,5.232999801635742 9.793000221252441,7.830999851226807 9.793000221252441,7.830999851226807 C12.743000030517578,5.4679999351501465 15.520999908447266,0.3160000145435333 12.46500015258789,-5.9730000495910645 C9.458999633789062,-12.159000396728516 2.0280001163482666,-14.843000411987305 -5.491000175476074,-11.1899995803833z"></path></g></g></g><g clip-path="url(#__lottie_element_808)" transform="matrix(1,0,0,1,1325.5009765625,747.864990234375)" opacity="1" style="display: block;"><g transform="matrix(1,0,0,1,115.11000061035156,115.11100006103516)" opacity="1" style="display: block;"><g opacity="1" transform="matrix(2,0,0,2,0,0)"><path stroke-linecap="butt" stroke-linejoin="miter" fill-opacity="0" stroke-miterlimit="4" stroke="rgb(0,0,0)" stroke-opacity="1" stroke-width="1.519" d=" M0,-50.30550003051758 C27.76360511779785,-50.30550003051758 50.30550003051758,-27.76360511779785 50.30550003051758,0 C50.30550003051758,27.76360511779785 27.76360511779785,50.30550003051758 0,50.30550003051758 C-27.76360511779785,50.30550003051758 -50.30550003051758,27.76360511779785 -50.30550003051758,0 C-50.30550003051758,-27.76360511779785 -27.76360511779785,-50.30550003051758 0,-50.30550003051758z"></path></g></g><g transform="matrix(1,0,0,1,115.11000061035156,115.11100006103516)" opacity="1" style="display: block;"><g opacity="1" transform="matrix(2,0,0,2,0,0)"><path stroke-linecap="butt" stroke-linejoin="miter" fill-opacity="0" stroke-miterlimit="4" stroke="rgb(0,0,0)" stroke-opacity="1" stroke-width="1.519" d=" M0,-33.48149871826172 C18.478439331054688,-33.48149871826172 33.48149871826172,-18.478439331054688 33.48149871826172,0 C33.48149871826172,18.478439331054688 18.478439331054688,33.48149871826172 0,33.48149871826172 C-18.478439331054688,33.48149871826172 -33.48149871826172,18.478439331054688 -33.48149871826172,0 C-33.48149871826172,-18.478439331054688 -18.478439331054688,-33.48149871826172 0,-33.48149871826172z"></path></g></g><g transform="matrix(1,0,0,1,115.11000061035156,115.11100006103516)" opacity="1" style="display: block;"><g opacity="1" transform="matrix(2,0,0,2,0,0)"><path stroke-linecap="butt" stroke-linejoin="miter" fill-opacity="0" stroke-miterlimit="4" stroke="rgb(0,0,0)" stroke-opacity="1" stroke-width="1.519" d=" M0,-13.112000465393066 C7.236513137817383,-13.112000465393066 13.112000465393066,-7.236513137817383 13.112000465393066,0 C13.112000465393066,7.236513137817383 7.236513137817383,13.112000465393066 0,13.112000465393066 C-7.236513137817383,13.112000465393066 -13.112000465393066,7.236513137817383 -13.112000465393066,0 C-13.112000465393066,-7.236513137817383 -7.236513137817383,-13.112000465393066 0,-13.112000465393066z"></path></g></g><g transform="matrix(1,0,0,1,64.80599975585938,115.11299896240234)" opacity="1" style="display: block;"><g opacity="1" transform="matrix(2,0,0,2,0,0)"><path stroke-linecap="butt" stroke-linejoin="miter" fill-opacity="0" stroke-miterlimit="4" stroke="rgb(0,0,0)" stroke-opacity="1" stroke-width="1.519" d=" M25.152999877929688,-50.305999755859375 C53.59700012207031,-50.30699920654297 75.34700012207031,-27.726999282836914 75.34700012207031,0.0560000017285347 C75.34700012207031,27.839000701904297 53.09700012207031,49.944000244140625 25.152999877929688,50.305999755859375"></path></g></g><g transform="matrix(1,0,0,1,64.80599975585938,115.11299896240234)" opacity="1" style="display: block;"><g opacity="1" transform="matrix(2,0,0,2,0,0)"><path stroke-linecap="butt" stroke-linejoin="miter" fill-opacity="0" stroke-miterlimit="4" stroke="rgb(0,0,0)" stroke-opacity="1" stroke-width="1.519" d=" M25.152999877929688,-50.305999755859375 C53.59700012207031,-50.30699920654297 75.34700012207031,-27.726999282836914 75.34700012207031,0.0560000017285347 C75.34700012207031,27.839000701904297 53.09700012207031,49.944000244140625 25.152999877929688,50.305999755859375"></path></g></g><g transform="matrix(1,0,0,1,64.80599975585938,115.11299896240234)" opacity="1" style="display: block;"><g opacity="1" transform="matrix(2,0,0,2,0,0)"><path stroke-linecap="butt" stroke-linejoin="miter" fill-opacity="0" stroke-miterlimit="4" stroke="rgb(0,0,0)" stroke-opacity="1" stroke-width="1.519" d=" M25.152999877929688,-50.305999755859375 C47.0731086730957,-50.306884765625 63.686214447021484,-27.733497619628906 63.686214447021484,0.04950244724750519 C63.686214447021484,27.832502365112305 46.63112258911133,49.98600387573242 25.152999877929688,50.305999755859375"></path></g></g><g transform="matrix(1,0,0,1,64.80599975585938,115.11299896240234)" opacity="1" style="display: block;"><g opacity="1" transform="matrix(2,0,0,2,0,0)"><path stroke-linecap="butt" stroke-linejoin="miter" fill-opacity="0" stroke-miterlimit="4" stroke="rgb(0,0,0)" stroke-opacity="1" stroke-width="1.519" d=" M25.152999877929688,-50.305999755859375 C33.016361236572266,-50.30663299560547 38.561214447021484,-27.74749755859375 38.561214447021484,0.03550244867801666 C38.561214447021484,27.81850242614746 32.69937515258789,50.07650375366211 25.152999877929688,50.305999755859375"></path></g></g><g transform="matrix(1,0,0,1,64.80599975585938,115.11299896240234)" opacity="1" style="display: block;"><g opacity="1" transform="matrix(2,0,0,2,0,0)"><path stroke-linecap="butt" stroke-linejoin="miter" fill-opacity="0" stroke-miterlimit="4" stroke="rgb(0,0,0)" stroke-opacity="1" stroke-width="1.519" d=" M25.152999877929688,-50.305999755859375 C21.30240249633789,-50.306427001953125 17.623716354370117,-27.759164810180664 17.623716354370117,0.02383578196167946 C17.623716354370117,27.806835174560547 21.089582443237305,50.151920318603516 25.152999877929688,50.305999755859375"></path></g></g><g transform="matrix(1,0,0,1,64.80599975585938,115.11299896240234)" opacity="1" style="display: none;"><g opacity="1" transform="matrix(2,0,0,2,0,0)"><path stroke-linecap="butt" stroke-linejoin="miter" fill-opacity="0" stroke-miterlimit="4" stroke="rgb(0,0,0)" stroke-opacity="1" stroke-width="1.519" d=" M25.152999877929688,-50.305999755859375 C6.662894248962402,-50.3061637878418 -8.542903900146484,-27.773744583129883 -8.542903900146484,0.009255376644432545 C-8.542903900146484,27.792255401611328 6.580256938934326,50.24617004394531 25.152999877929688,50.305999755859375"></path></g></g><g transform="matrix(1,0,0,1,64.80599975585938,115.11299896240234)" opacity="1" style="display: none;"><g opacity="1" transform="matrix(2,0,0,2,0,0)"><path stroke-linecap="butt" stroke-linejoin="miter" fill-opacity="0" stroke-miterlimit="4" stroke="rgb(0,0,0)" stroke-opacity="1" stroke-width="1.519" d=" M25.152999877929688,-50.305999755859375 C18.37685203552246,-50.306373596191406 12.394594192504883,-27.76207733154297 12.394594192504883,0.020922042429447174 C12.394594192504883,27.803922653198242 18.190048217773438,50.170753479003906 25.152999877929688,50.305999755859375"></path></g></g><g transform="matrix(1,0,0,1,64.80599975585938,115.11299896240234)" opacity="1" style="display: none;"><g opacity="1" transform="matrix(2,0,0,2,0,0)"><path stroke-linecap="butt" stroke-linejoin="miter" fill-opacity="0" stroke-miterlimit="4" stroke="rgb(0,0,0)" stroke-opacity="1" stroke-width="1.519" d=" M25.152999877929688,-50.305999755859375 C32.43360137939453,-50.30662536621094 37.51959228515625,-27.748077392578125 37.51959228515625,0.0349220409989357 C37.51959228515625,27.817922592163086 32.121795654296875,50.08025360107422 25.152999877929688,50.305999755859375"></path></g></g><g transform="matrix(1,0,0,1,64.80599975585938,115.11299896240234)" opacity="1" style="display: block;"><g opacity="1" transform="matrix(2,0,0,2,0,0)"><path stroke-linecap="butt" stroke-linejoin="miter" fill-opacity="0" stroke-miterlimit="4" stroke="rgb(0,0,0)" stroke-opacity="1" stroke-width="1.519" d=" M25.152999877929688,-50.305999755859375 C0.21727831661701202,-50.30604934692383 -20.06378173828125,-27.78016471862793 -20.06378173828125,0.002835783176124096 C-20.06378173828125,27.78583526611328 0.19195881485939026,50.28767013549805 25.152999877929688,50.305999755859375"></path></g></g><g style="display: none;"><g><path stroke-linecap="butt" stroke-linejoin="miter" fill-opacity="0" stroke-miterlimit="4"></path></g></g><g style="display: none;"><g><path stroke-linecap="butt" stroke-linejoin="miter" fill-opacity="0" stroke-miterlimit="4"></path></g></g><g style="display: none;"><g><path stroke-linecap="butt" stroke-linejoin="miter" fill-opacity="0" stroke-miterlimit="4"></path></g></g><g style="display: none;"><g><path stroke-linecap="butt" stroke-linejoin="miter" fill-opacity="0" stroke-miterlimit="4"></path></g></g><g transform="matrix(1,0,0,1,64.80599975585938,115.11299896240234)" opacity="1" style="display: block;"><g opacity="1" transform="matrix(2,0,0,2,0,0)"><path stroke-linecap="butt" stroke-linejoin="miter" fill-opacity="0" stroke-miterlimit="4" stroke="rgb(0,0,0)" stroke-opacity="1" stroke-width="1.519" d=" M25.152999877929688,-50.305999755859375 C8.417048454284668,-50.30619812011719 -5.407533168792725,-27.771997451782227 -5.407533168792725,0.011002449318766594 C-5.407533168792725,27.794002532958984 8.318812370300293,50.23487854003906 25.152999877929688,50.305999755859375"></path></g></g></g><g clip-path="url(#__lottie_element_795)" transform="matrix(1,0,0,1,1382.2330322265625,628.4030151367188)" opacity="1" style="display: block;"><g transform="matrix(1,0,0,1,31.232999801635742,24.816999435424805)" opacity="1" style="display: block;"><g opacity="1" transform="matrix(2,0,0,2,0,0)"><path fill="rgb(0,0,0)" fill-opacity="1" d=" M1.3769999742507935,6.335999965667725 C1.152999997138977,6.111000061035156 1.024999976158142,5.7270002365112305 1.024999976158142,5.117000102996826 C1.024999976158142,5.117000102996826 0.9929999709129333,5.14900016784668 0.9929999709129333,5.14900016784668 C0.9929999709129333,5.14900016784668 0.9929999709129333,-5.5980000495910645 0.9929999709129333,-5.5980000495910645 C0.9929999709129333,-6.111000061035156 1.0889999866485596,-6.465000152587891 1.312999963760376,-6.6570000648498535 C1.5369999408721924,-6.848999977111816 1.8899999856948853,-6.946000099182129 2.4019999504089355,-6.946000099182129 C2.7219998836517334,-6.946000099182129 3.009999990463257,-6.914000034332275 3.2980000972747803,-6.849999904632568 C3.5859999656677246,-6.785999774932861 3.8429999351501465,-6.5929999351501465 4.066999912261963,-6.271999835968018 C4.290999889373779,-5.951000213623047 4.514999866485596,-5.502999782562256 4.675000190734863,-4.861000061035156 C4.867000102996826,-4.250999927520752 4.964000225067139,-3.384999990463257 5.0279998779296875,-2.26200008392334 C5.0279998779296875,-2.26200008392334 6.116000175476074,-2.26200008392334 6.116000175476074,-2.26200008392334 C6.116000175476074,-2.26200008392334 6.116000175476074,-7.9079999923706055 6.116000175476074,-7.9079999923706055 C6.116000175476074,-7.9079999923706055 -6.116000175476074,-7.9079999923706055 -6.116000175476074,-7.9079999923706055 C-6.116000175476074,-7.9079999923706055 -6.116000175476074,-2.2939999103546143 -6.116000175476074,-2.2939999103546143 C-6.116000175476074,-2.2939999103546143 -5.0279998779296875,-2.2939999103546143 -5.0279998779296875,-2.2939999103546143 C-4.995999813079834,-3.384999990463257 -4.867000102996826,-4.250999927520752 -4.706999778747559,-4.89300012588501 C-4.514999866485596,-5.534999847412109 -4.322999954223633,-5.982999801635742 -4.098999977111816,-6.303999900817871 C-3.875,-6.625 -3.618000030517578,-6.817999839782715 -3.3299999237060547,-6.881999969482422 C-3.0420000553131104,-6.946000099182129 -2.753999948501587,-6.978000164031982 -2.434000015258789,-6.978000164031982 C-1.9220000505447388,-6.978000164031982 -1.569000005722046,-6.88100004196167 -1.3450000286102295,-6.689000129699707 C-1.121000051498413,-6.497000217437744 -1.024999976158142,-6.144000053405762 -1.024999976158142,-5.63100004196167 C-1.024999976158142,-5.63100004196167 -1.024999976158142,5.117000102996826 -1.024999976158142,5.117000102996826 C-1.024999976158142,5.7270002365112305 -1.121000051498413,6.111000061035156 -1.3769999742507935,6.335999965667725 C-1.6009999513626099,6.560999870300293 -2.0810000896453857,6.6570000648498535 -2.7860000133514404,6.6570000648498535 C-2.7860000133514404,6.6570000648498535 -3.5869998931884766,6.6570000648498535 -3.5869998931884766,6.6570000648498535 C-3.5869998931884766,6.6570000648498535 -3.5869998931884766,7.9079999923706055 -3.5869998931884766,7.9079999923706055 C-3.5869998931884766,7.9079999923706055 3.61899995803833,7.9079999923706055 3.61899995803833,7.9079999923706055 C3.61899995803833,7.9079999923706055 3.61899995803833,6.6570000648498535 3.61899995803833,6.6570000648498535 C3.61899995803833,6.6570000648498535 2.7860000133514404,6.6570000648498535 2.7860000133514404,6.6570000648498535 C2.0810000896453857,6.6570000648498535 1.6009999513626099,6.560999870300293 1.3769999742507935,6.335999965667725z"></path></g></g><g transform="matrix(1,0,0,1,58.16400146484375,24.860000610351562)" opacity="1" style="display: block;"><g opacity="1" transform="matrix(2,0,0,2,0,0)"><path fill="rgb(0,0,0)" fill-opacity="1" d=" M-0.527999997138977,7.892000198364258 C-0.527999997138977,7.892000198364258 -0.527999997138977,6.640999794006348 -0.527999997138977,6.640999794006348 C-0.527999997138977,6.640999794006348 -1.1050000190734863,6.640999794006348 -1.1050000190734863,6.640999794006348 C-1.5850000381469727,6.640999794006348 -1.937999963760376,6.544000148773193 -2.130000114440918,6.3520002365112305 C-2.322000026702881,6.159999847412109 -2.4179999828338623,5.807000160217285 -2.4179999828338623,5.326000213623047 C-2.4179999828338623,5.326000213623047 -2.4179999828338623,0.4169999957084656 -2.4179999828338623,0.4169999957084656 C-2.4179999828338623,0.4169999957084656 2.4179999828338623,0.4169999957084656 2.4179999828338623,0.4169999957084656 C2.4179999828338623,0.4169999957084656 2.4179999828338623,5.326000213623047 2.4179999828338623,5.326000213623047 C2.4179999828338623,5.807000160217285 2.322000026702881,6.159999847412109 2.130000114440918,6.3520002365112305 C1.937999963760376,6.544000148773193 1.5850000381469727,6.640999794006348 1.1050000190734863,6.640999794006348 C1.1050000190734863,6.640999794006348 0.527999997138977,6.640999794006348 0.527999997138977,6.640999794006348 C0.527999997138977,6.640999794006348 0.527999997138977,7.892000198364258 0.527999997138977,7.892000198364258 C0.527999997138977,7.892000198364258 6.388999938964844,7.892000198364258 6.388999938964844,7.892000198364258 C6.388999938964844,7.892000198364258 6.388999938964844,6.640999794006348 6.388999938964844,6.640999794006348 C6.388999938964844,6.640999794006348 5.78000020980835,6.640999794006348 5.78000020980835,6.640999794006348 C5.300000190734863,6.640999794006348 4.947000026702881,6.544000148773193 4.755000114440918,6.3520002365112305 C4.563000202178955,6.159999847412109 4.4670000076293945,5.807000160217285 4.4670000076293945,5.326000213623047 C4.4670000076293945,5.326000213623047 4.4670000076293945,-5.326000213623047 4.4670000076293945,-5.326000213623047 C4.4670000076293945,-5.807000160217285 4.563000202178955,-6.159999847412109 4.755000114440918,-6.3520002365112305 C4.979000091552734,-6.544000148773193 5.300000190734863,-6.640999794006348 5.78000020980835,-6.640999794006348 C5.78000020980835,-6.640999794006348 6.388999938964844,-6.640999794006348 6.388999938964844,-6.640999794006348 C6.388999938964844,-6.640999794006348 6.388999938964844,-7.892000198364258 6.388999938964844,-7.892000198364258 C6.388999938964844,-7.892000198364258 0.527999997138977,-7.892000198364258 0.527999997138977,-7.892000198364258 C0.527999997138977,-7.892000198364258 0.527999997138977,-6.640999794006348 0.527999997138977,-6.640999794006348 C0.527999997138977,-6.640999794006348 1.1050000190734863,-6.640999794006348 1.1050000190734863,-6.640999794006348 C1.5850000381469727,-6.640999794006348 1.937999963760376,-6.544000148773193 2.130000114440918,-6.3520002365112305 C2.322000026702881,-6.159999847412109 2.4179999828338623,-5.807000160217285 2.4179999828338623,-5.326000213623047 C2.4179999828338623,-5.326000213623047 2.4179999828338623,-0.7059999704360962 2.4179999828338623,-0.7059999704360962 C2.4179999828338623,-0.7059999704360962 -2.4179999828338623,-0.7059999704360962 -2.4179999828338623,-0.7059999704360962 C-2.4179999828338623,-0.7059999704360962 -2.4179999828338623,-5.326000213623047 -2.4179999828338623,-5.326000213623047 C-2.4179999828338623,-5.807000160217285 -2.322000026702881,-6.159999847412109 -2.130000114440918,-6.3520002365112305 C-1.937999963760376,-6.544000148773193 -1.5850000381469727,-6.640999794006348 -1.1050000190734863,-6.640999794006348 C-1.1050000190734863,-6.640999794006348 -0.527999997138977,-6.640999794006348 -0.527999997138977,-6.640999794006348 C-0.527999997138977,-6.640999794006348 -0.527999997138977,-7.892000198364258 -0.527999997138977,-7.892000198364258 C-0.527999997138977,-7.892000198364258 -6.388999938964844,-7.892000198364258 -6.388999938964844,-7.892000198364258 C-6.388999938964844,-7.892000198364258 -6.388999938964844,-6.640999794006348 -6.388999938964844,-6.640999794006348 C-6.388999938964844,-6.640999794006348 -5.78000020980835,-6.640999794006348 -5.78000020980835,-6.640999794006348 C-5.300000190734863,-6.640999794006348 -4.947000026702881,-6.544000148773193 -4.755000114440918,-6.3520002365112305 C-4.563000202178955,-6.159999847412109 -4.4670000076293945,-5.807000160217285 -4.4670000076293945,-5.326000213623047 C-4.4670000076293945,-5.326000213623047 -4.4670000076293945,5.326000213623047 -4.4670000076293945,5.326000213623047 C-4.4670000076293945,5.807000160217285 -4.563000202178955,6.159999847412109 -4.755000114440918,6.3520002365112305 C-4.979000091552734,6.544000148773193 -5.300000190734863,6.640999794006348 -5.78000020980835,6.640999794006348 C-5.78000020980835,6.640999794006348 -6.388999938964844,6.640999794006348 -6.388999938964844,6.640999794006348 C-6.388999938964844,6.640999794006348 -6.388999938964844,7.892000198364258 -6.388999938964844,7.892000198364258 C-6.388999938964844,7.892000198364258 -0.527999997138977,7.892000198364258 -0.527999997138977,7.892000198364258z"></path></g></g><g transform="matrix(1,0,0,1,84.42400360107422,24.858999252319336)" opacity="1" style="display: block;"><g opacity="1" transform="matrix(2,0,0,2,0,0)"><path fill="rgb(0,0,0)" fill-opacity="1" d=" M5.6519999504089355,7.892000198364258 C5.6519999504089355,7.892000198364258 5.6519999504089355,1.9249999523162842 5.6519999504089355,1.9249999523162842 C5.6519999504089355,1.9249999523162842 5.684000015258789,1.9570000171661377 5.684000015258789,1.9570000171661377 C5.684000015258789,1.9570000171661377 4.755000114440918,1.9570000171661377 4.755000114440918,1.9570000171661377 C4.59499979019165,2.9519999027252197 4.434999942779541,3.7850000858306885 4.243000030517578,4.394999980926514 C4.051000118255615,5.0370001792907715 3.7950000762939453,5.51800012588501 3.506999969482422,5.839000225067139 C3.187000036239624,6.191999912261963 2.8340001106262207,6.385000228881836 2.385999917984009,6.513000011444092 C1.9700000286102295,6.609000205993652 1.4249999523162842,6.672999858856201 0.753000020980835,6.672999858856201 C0.753000020980835,6.672999858856201 -0.8169999718666077,6.672999858856201 -0.8169999718666077,6.672999858856201 C-1.1050000190734863,6.672999858856201 -1.2970000505447388,6.609000205993652 -1.4570000171661377,6.448999881744385 C-1.6169999837875366,6.321000099182129 -1.680999994277954,6.0960001945495605 -1.680999994277954,5.807000160217285 C-1.680999994277954,5.807000160217285 -1.680999994277954,0.5130000114440918 -1.680999994277954,0.5130000114440918 C-1.680999994277954,0.5130000114440918 -0.9129999876022339,0.5130000114440918 -0.9129999876022339,0.5130000114440918 C-0.04800000041723251,0.5130000114440918 0.5289999842643738,0.7059999704360962 0.753000020980835,1.1230000257492065 C0.9769999980926514,1.5399999618530273 1.1050000190734863,2.375 1.1050000190734863,3.690000057220459 C1.1050000190734863,3.690000057220459 2.130000114440918,3.690000057220459 2.130000114440918,3.690000057220459 C2.130000114440918,3.690000057220459 2.130000114440918,-3.7860000133514404 2.130000114440918,-3.7860000133514404 C2.130000114440918,-3.7860000133514404 1.1050000190734863,-3.7860000133514404 1.1050000190734863,-3.7860000133514404 C1.1050000190734863,-2.5350000858306885 1.0089999437332153,-1.6679999828338623 0.753000020980835,-1.2510000467300415 C0.5289999842643738,-0.8339999914169312 -0.04800000041723251,-0.6100000143051147 -0.9129999876022339,-0.6100000143051147 C-0.9129999876022339,-0.6100000143051147 -1.680999994277954,-0.6100000143051147 -1.680999994277954,-0.6100000143051147 C-1.680999994277954,-0.6100000143051147 -1.680999994277954,-5.743000030517578 -1.680999994277954,-5.743000030517578 C-1.680999994277954,-6.0320000648498535 -1.6169999837875366,-6.223999977111816 -1.4570000171661377,-6.383999824523926 C-1.3289999961853027,-6.544000148773193 -1.1050000190734863,-6.609000205993652 -0.8169999718666077,-6.609000205993652 C-0.8169999718666077,-6.609000205993652 0.335999995470047,-6.609000205993652 0.335999995470047,-6.609000205993652 C0.9760000109672546,-6.609000205993652 1.5210000276565552,-6.545000076293945 1.968999981880188,-6.448999881744385 C2.4170000553131104,-6.321000099182129 2.802000045776367,-6.127999782562256 3.121999979019165,-5.807000160217285 C3.441999912261963,-5.486000061035156 3.6989998817443848,-5.068999767303467 3.8910000324249268,-4.492000102996826 C4.083000183105469,-3.9149999618530273 4.243000030517578,-3.1760001182556152 4.339000225067139,-2.309999942779541 C4.339000225067139,-2.309999942779541 5.26800012588501,-2.309999942779541 5.26800012588501,-2.309999942779541 C5.26800012588501,-2.309999942779541 5.26800012588501,-7.892000198364258 5.26800012588501,-7.892000198364258 C5.26800012588501,-7.892000198364258 -5.684000015258789,-7.892000198364258 -5.684000015258789,-7.892000198364258 C-5.684000015258789,-7.892000198364258 -5.684000015258789,-6.640999794006348 -5.684000015258789,-6.640999794006348 C-5.684000015258789,-6.640999794006348 -5.076000213623047,-6.640999794006348 -5.076000213623047,-6.640999794006348 C-4.5960001945495605,-6.640999794006348 -4.243000030517578,-6.544000148773193 -4.051000118255615,-6.3520002365112305 C-3.8589999675750732,-6.159999847412109 -3.763000011444092,-5.807000160217285 -3.763000011444092,-5.326000213623047 C-3.763000011444092,-5.326000213623047 -3.763000011444092,5.326000213623047 -3.763000011444092,5.326000213623047 C-3.763000011444092,5.807000160217285 -3.8589999675750732,6.159999847412109 -4.051000118255615,6.3520002365112305 C-4.275000095367432,6.544000148773193 -4.5960001945495605,6.640999794006348 -5.076000213623047,6.640999794006348 C-5.076000213623047,6.640999794006348 -5.684000015258789,6.640999794006348 -5.684000015258789,6.640999794006348 C-5.684000015258789,6.640999794006348 -5.684000015258789,7.892000198364258 -5.684000015258789,7.892000198364258 C-5.684000015258789,7.892000198364258 5.6519999504089355,7.892000198364258 5.6519999504089355,7.892000198364258z"></path></g></g></g><g clip-path="url(#__lottie_element_785)" transform="matrix(1,0,0,1,1547.123046875,827.3930053710938)" opacity="1" style="display: block;"><g transform="matrix(1,0,0,1,37.340999603271484,29.937000274658203)" opacity="1" style="display: block;"><g opacity="1" transform="matrix(2,0,0,2,0,0)"><path fill="rgb(0,0,0)" fill-opacity="1" d=" M-2.4170000553131104,7.940000057220459 C-2.4170000553131104,7.940000057220459 -2.4170000553131104,-5.406000137329102 -2.4170000553131104,-5.406000137329102 C-2.4170000553131104,-5.88700008392334 -2.3519999980926514,-6.208000183105469 -2.1600000858306885,-6.400000095367432 C-1.9359999895095825,-6.5920000076293945 -1.6160000562667847,-6.6570000648498535 -1.1360000371932983,-6.6570000648498535 C-1.1360000371932983,-6.6570000648498535 0.4729999899864197,-6.6570000648498535 0.4729999899864197,-6.6570000648498535 C0.4729999899864197,-6.6570000648498535 0.4729999899864197,-7.940000057220459 0.4729999899864197,-7.940000057220459 C0.4729999899864197,-7.940000057220459 -5.586999893188477,-7.940000057220459 -5.586999893188477,-7.940000057220459 C-5.586999893188477,-7.940000057220459 -5.586999893188477,-6.689000129699707 -5.586999893188477,-6.689000129699707 C-5.586999893188477,-6.689000129699707 -5.011000156402588,-6.689000129699707 -5.011000156402588,-6.689000129699707 C-4.531000137329102,-6.689000129699707 -4.177999973297119,-6.5920000076293945 -3.9860000610351562,-6.400000095367432 C-3.7939999103546143,-6.208000183105469 -3.697999954223633,-5.855000019073486 -3.697999954223633,-5.374000072479248 C-3.697999954223633,-5.374000072479248 -3.697999954223633,3.99399995803833 -3.697999954223633,3.99399995803833 C-3.697999954223633,3.99399995803833 -8.597000122070312,-7.940000057220459 -8.597000122070312,-7.940000057220459 C-8.597000122070312,-7.940000057220459 -12.920000076293945,-7.940000057220459 -12.920000076293945,-7.940000057220459 C-12.920000076293945,-7.940000057220459 -12.920000076293945,-6.689000129699707 -12.920000076293945,-6.689000129699707 C-12.920000076293945,-6.689000129699707 -12.312000274658203,-6.689000129699707 -12.312000274658203,-6.689000129699707 C-11.831999778747559,-6.689000129699707 -11.479000091552734,-6.5920000076293945 -11.286999702453613,-6.400000095367432 C-11.095000267028809,-6.208000183105469 -10.99899959564209,-5.855000019073486 -10.99899959564209,-5.374000072479248 C-10.99899959564209,-5.374000072479248 -10.99899959564209,5.2779998779296875 -10.99899959564209,5.2779998779296875 C-10.99899959564209,5.758999824523926 -11.095000267028809,6.111999988555908 -11.286999702453613,6.303999900817871 C-11.51099967956543,6.495999813079834 -11.831999778747559,6.5929999351501465 -12.312000274658203,6.5929999351501465 C-12.312000274658203,6.5929999351501465 -12.920000076293945,6.5929999351501465 -12.920000076293945,6.5929999351501465 C-12.920000076293945,6.5929999351501465 -12.920000076293945,7.843999862670898 -12.920000076293945,7.843999862670898 C-12.920000076293945,7.843999862670898 -7.861000061035156,7.843999862670898 -7.861000061035156,7.843999862670898 C-7.861000061035156,7.843999862670898 -7.861000061035156,6.5929999351501465 -7.861000061035156,6.5929999351501465 C-7.861000061035156,6.5929999351501465 -8.437000274658203,6.5929999351501465 -8.437000274658203,6.5929999351501465 C-8.916999816894531,6.5929999351501465 -9.270000457763672,6.495999813079834 -9.461999893188477,6.303999900817871 C-9.654000282287598,6.111999988555908 -9.75,5.758999824523926 -9.75,5.2779998779296875 C-9.75,5.2779998779296875 -9.75,-5.245999813079834 -9.75,-5.245999813079834 C-9.75,-5.245999813079834 -4.3379998207092285,7.940000057220459 -4.3379998207092285,7.940000057220459 C-4.3379998207092285,7.940000057220459 -2.4170000553131104,7.940000057220459 -2.4170000553131104,7.940000057220459z"></path><g opacity="1" transform="matrix(1,0,0,1,0,0)"></g></g></g><g transform="matrix(1,0,0,1,37.340999603271484,29.937000274658203)" opacity="1" style="display: block;"><g opacity="1" transform="matrix(2,0,0,2,0,0)"><path fill="rgb(0,0,0)" fill-opacity="1" d=" M10.038000106811523,7.9079999923706055 C10.038000106811523,7.9079999923706055 10.038000106811523,6.6570000648498535 10.038000106811523,6.6570000648498535 C10.038000106811523,6.6570000648498535 10.005999565124512,6.5929999351501465 10.005999565124512,6.5929999351501465 C10.005999565124512,6.5929999351501465 9.302000045776367,6.5929999351501465 9.302000045776367,6.5929999351501465 C8.597000122070312,6.5929999351501465 8.116999626159668,6.497000217437744 7.89300012588501,6.271999835968018 C7.669000148773193,6.046999931335449 7.539999961853027,5.663000106811523 7.539999961853027,5.052999973297119 C7.539999961853027,5.052999973297119 7.539999961853027,1.5240000486373901 7.539999961853027,1.5240000486373901 C7.539999961853027,1.5240000486373901 10.614999771118164,-5.245999813079834 10.614999771118164,-5.245999813079834 C10.83899974822998,-5.758999824523926 11.095000267028809,-6.14300012588501 11.35099983215332,-6.368000030517578 C11.607000350952148,-6.5929999351501465 11.991999626159668,-6.689000129699707 12.4399995803833,-6.689000129699707 C12.4399995803833,-6.689000129699707 12.920000076293945,-6.689000129699707 12.920000076293945,-6.689000129699707 C12.920000076293945,-6.689000129699707 12.920000076293945,-7.940000057220459 12.920000076293945,-7.940000057220459 C12.920000076293945,-7.940000057220459 8.213000297546387,-7.940000057220459 8.213000297546387,-7.940000057220459 C8.213000297546387,-7.940000057220459 8.213000297546387,-6.689000129699707 8.213000297546387,-6.689000129699707 C8.213000297546387,-6.689000129699707 8.980999946594238,-6.689000129699707 8.980999946594238,-6.689000129699707 C9.269000053405762,-6.689000129699707 9.461999893188477,-6.625 9.59000015258789,-6.497000217437744 C9.685999870300293,-6.36899995803833 9.75,-6.208000183105469 9.75,-6.015999794006348 C9.75,-5.920000076293945 9.718000411987305,-5.790999889373779 9.654000282287598,-5.63100004196167 C9.59000015258789,-5.4710001945495605 9.461999893188477,-5.2129998207092285 9.461999893188477,-5.2129998207092285 C9.461999893188477,-5.2129998207092285 7.059999942779541,0.36899998784065247 7.059999942779541,0.36899998784065247 C7.059999942779541,0.36899998784065247 4.561999797821045,-5.2129998207092285 4.561999797821045,-5.2129998207092285 C4.498000144958496,-5.341000080108643 4.434000015258789,-5.46999979019165 4.369999885559082,-5.5980000495910645 C4.27400016784668,-5.757999897003174 4.27400016784668,-5.888000011444092 4.27400016784668,-6.047999858856201 C4.27400016784668,-6.239999771118164 4.3379998207092285,-6.36899995803833 4.466000080108643,-6.497000217437744 C4.593999862670898,-6.5929999351501465 4.755000114440918,-6.6570000648498535 4.979000091552734,-6.6570000648498535 C4.979000091552734,-6.6570000648498535 6.034999847412109,-6.6570000648498535 6.034999847412109,-6.6570000648498535 C6.034999847412109,-6.6570000648498535 6.034999847412109,-7.940000057220459 6.034999847412109,-7.940000057220459 C6.034999847412109,-7.940000057220459 0.04699999839067459,-7.940000057220459 0.04699999839067459,-7.940000057220459 C0.04699999839067459,-7.940000057220459 0.04699999839067459,-6.6570000648498535 0.04699999839067459,-6.6570000648498535 C0.04699999839067459,-6.6570000648498535 0.4950000047683716,-6.6570000648498535 0.4950000047683716,-6.6570000648498535 C0.9750000238418579,-6.6570000648498535 1.3600000143051147,-6.560999870300293 1.6160000562667847,-6.335999965667725 C1.871999979019165,-6.111000061035156 2.128999948501587,-5.72599983215332 2.384999990463257,-5.181000232696533 C2.384999990463257,-5.181000232696533 5.5229997634887695,1.555999994277954 5.5229997634887695,1.555999994277954 C5.5229997634887695,1.555999994277954 5.5229997634887695,5.117000102996826 5.5229997634887695,5.117000102996826 C5.5229997634887695,5.7270002365112305 5.427000045776367,6.111000061035156 5.171000003814697,6.335999965667725 C4.947000026702881,6.560999870300293 4.4670000076293945,6.6570000648498535 3.76200008392334,6.6570000648498535 C3.76200008392334,6.6570000648498535 3.0889999866485596,6.6570000648498535 3.0889999866485596,6.6570000648498535 C3.0889999866485596,6.6570000648498535 3.0889999866485596,7.9079999923706055 3.0889999866485596,7.9079999923706055 C3.0889999866485596,7.9079999923706055 10.038000106811523,7.9079999923706055 10.038000106811523,7.9079999923706055z"></path><g opacity="1" transform="matrix(1,0,0,1,0,0)"></g></g></g></g><g clip-path="url(#__lottie_element_775)" transform="matrix(1,0,0,1,1262.47998046875,828.0029907226562)" opacity="1" style="display: block;"><g transform="matrix(1,0,0,1,24.656999588012695,29.990999221801758)" opacity="1" style="display: block;"><g opacity="1" transform="matrix(2,0,0,2,0,0)"><path fill="rgb(0,0,0)" fill-opacity="1" d=" M2.562000036239624,5.26200008392334 C2.0179998874664307,6.256999969482422 1.152999997138977,6.769000053405762 0,6.769000053405762 C-1.152999997138977,6.769000053405762 -1.9859999418258667,6.256999969482422 -2.562000036239624,5.26200008392334 C-3.1059999465942383,4.267000198364258 -3.3940000534057617,2.502000093460083 -3.3940000534057617,0 C-3.3940000534057617,-2.502000093460083 -3.1059999465942383,-4.267000198364258 -2.562000036239624,-5.26200008392334 C-2.0179998874664307,-6.256999969482422 -1.152999997138977,-6.769000053405762 0,-6.769000053405762 C1.152999997138977,-6.769000053405762 2.0179998874664307,-6.256999969482422 2.562000036239624,-5.26200008392334 C3.1059999465942383,-4.267000198364258 3.3940000534057617,-2.502000093460083 3.3940000534057617,0 C3.3940000534057617,2.502000093460083 3.1059999465942383,4.267000198364258 2.562000036239624,5.26200008392334z M-2.4019999504089355,7.636000156402588 C-1.6649999618530273,8.053000450134277 -0.8650000095367432,8.244999885559082 0,8.244999885559082 C0.8650000095367432,8.244999885559082 1.6649999618530273,8.020999908447266 2.4019999504089355,7.636000156402588 C3.1070001125335693,7.250999927520752 3.7149999141693115,6.672999858856201 4.2270002365112305,5.9670000076293945 C4.738999843597412,5.261000156402588 5.124000072479248,4.395999908447266 5.4120001792907715,3.36899995803833 C5.699999809265137,2.3420000076293945 5.828000068664551,1.218999981880188 5.828000068664551,0 C5.828000068664551,-1.218999981880188 5.699999809265137,-2.3420000076293945 5.4120001792907715,-3.36899995803833 C5.124000072479248,-4.363999843597412 4.738999843597412,-5.261000156402588 4.2270002365112305,-5.9670000076293945 C3.746999979019165,-6.672999858856201 3.1389999389648438,-7.218999862670898 2.4019999504089355,-7.636000156402588 C1.6649999618530273,-8.053000450134277 0.8970000147819519,-8.244999885559082 0,-8.244999885559082 C-0.8970000147819519,-8.244999885559082 -1.6649999618530273,-8.053000450134277 -2.4019999504089355,-7.636000156402588 C-3.1070001125335693,-7.250999927520752 -3.7149999141693115,-6.672999858856201 -4.2270002365112305,-5.9670000076293945 C-4.738999843597412,-5.261000156402588 -5.124000072479248,-4.395999908447266 -5.4120001792907715,-3.36899995803833 C-5.699999809265137,-2.3420000076293945 -5.828000068664551,-1.218999981880188 -5.828000068664551,0 C-5.828000068664551,1.218999981880188 -5.699999809265137,2.3420000076293945 -5.4120001792907715,3.36899995803833 C-5.124000072479248,4.395999908447266 -4.706999778747559,5.261000156402588 -4.2270002365112305,5.9670000076293945 C-3.746999979019165,6.672999858856201 -3.1389999389648438,7.250999927520752 -2.4019999504089355,7.636000156402588z"></path></g></g><g transform="matrix(1,0,0,1,51.20399856567383,29.985000610351562)" opacity="1" style="display: block;"><g opacity="1" transform="matrix(2,0,0,2,0,0)"><path fill="rgb(0,0,0)" fill-opacity="1" d=" M1.0089999437332153,7.892000198364258 C1.0089999437332153,7.892000198364258 1.0089999437332153,6.640999794006348 1.0089999437332153,6.640999794006348 C1.0089999437332153,6.640999794006348 -0.2720000147819519,6.640999794006348 -0.2720000147819519,6.640999794006348 C-0.7519999742507935,6.640999794006348 -1.1050000190734863,6.544000148773193 -1.2970000505447388,6.3520002365112305 C-1.4889999628067017,6.159999847412109 -1.5850000381469727,5.807000160217285 -1.5850000381469727,5.326000213623047 C-1.5850000381469727,5.326000213623047 -1.5850000381469727,0.7059999704360962 -1.5850000381469727,0.7059999704360962 C-1.5850000381469727,0.7059999704360962 -0.753000020980835,0.7059999704360962 -0.753000020980835,0.7059999704360962 C0.1120000034570694,0.7059999704360962 0.6890000104904175,0.8980000019073486 0.9129999876022339,1.315000057220459 C1.1369999647140503,1.7319999933242798 1.2649999856948853,2.566999912261963 1.2649999856948853,3.881999969482422 C1.2649999856948853,3.881999969482422 2.2899999618530273,3.881999969482422 2.2899999618530273,3.881999969482422 C2.2899999618530273,3.881999969482422 2.2899999618530273,-3.5929999351501465 2.2899999618530273,-3.5929999351501465 C2.2899999618530273,-3.5929999351501465 1.2649999856948853,-3.5929999351501465 1.2649999856948853,-3.5929999351501465 C1.2649999856948853,-2.3420000076293945 1.1690000295639038,-1.4759999513626099 0.9129999876022339,-1.059000015258789 C0.6890000104904175,-0.6420000195503235 0.1120000034570694,-0.4169999957084656 -0.753000020980835,-0.4169999957084656 C-0.753000020980835,-0.4169999957084656 -1.5850000381469727,-0.4169999957084656 -1.5850000381469727,-0.4169999957084656 C-1.5850000381469727,-0.4169999957084656 -1.5850000381469727,-5.775000095367432 -1.5850000381469727,-5.775000095367432 C-1.5850000381469727,-6.064000129699707 -1.5210000276565552,-6.256999969482422 -1.3609999418258667,-6.416999816894531 C-1.2330000400543213,-6.577000141143799 -1.0089999437332153,-6.640999794006348 -0.7210000157356262,-6.640999794006348 C-0.7210000157356262,-6.640999794006348 0.30399999022483826,-6.640999794006348 0.30399999022483826,-6.640999794006348 C1.0410000085830688,-6.640999794006348 1.649999976158142,-6.577000141143799 2.130000114440918,-6.448999881744385 C2.6419999599456787,-6.353000164031982 3.058000087738037,-6.127999782562256 3.378000020980835,-5.807000160217285 C3.697999954223633,-5.486000061035156 3.9549999237060547,-5.068999767303467 4.146999835968018,-4.492000102996826 C4.339000225067139,-3.9149999618530273 4.499000072479248,-3.1760001182556152 4.626999855041504,-2.309999942779541 C4.626999855041504,-2.309999942779541 5.556000232696533,-2.309999942779541 5.556000232696533,-2.309999942779541 C5.556000232696533,-2.309999942779541 5.556000232696533,-7.892000198364258 5.556000232696533,-7.892000198364258 C5.556000232696533,-7.892000198364258 -5.556000232696533,-7.892000198364258 -5.556000232696533,-7.892000198364258 C-5.556000232696533,-7.892000198364258 -5.556000232696533,-6.640999794006348 -5.556000232696533,-6.640999794006348 C-5.556000232696533,-6.640999794006348 -4.947999954223633,-6.640999794006348 -4.947999954223633,-6.640999794006348 C-4.4679999351501465,-6.640999794006348 -4.114999771118164,-6.544000148773193 -3.9230000972747803,-6.3520002365112305 C-3.7309999465942383,-6.159999847412109 -3.634999990463257,-5.807000160217285 -3.634999990463257,-5.326000213623047 C-3.634999990463257,-5.326000213623047 -3.634999990463257,5.326000213623047 -3.634999990463257,5.326000213623047 C-3.634999990463257,5.807000160217285 -3.7309999465942383,6.159999847412109 -3.9230000972747803,6.3520002365112305 C-4.114999771118164,6.544000148773193 -4.4679999351501465,6.640999794006348 -4.947999954223633,6.640999794006348 C-4.947999954223633,6.640999794006348 -5.556000232696533,6.640999794006348 -5.556000232696533,6.640999794006348 C-5.556000232696533,6.640999794006348 -5.556000232696533,7.892000198364258 -5.556000232696533,7.892000198364258 C-5.556000232696533,7.892000198364258 1.0089999437332153,7.892000198364258 1.0089999437332153,7.892000198364258z"></path></g></g></g></g></g></svg>